<?xml version="1.0" encoding="utf-8"?>
<!-- Generator: Adobe Illustrator 23.0.1, SVG Export Plug-In . SVG Version: 6.00 Build 0)  -->
<svg version="1.1" id="Layer_1" xmlns="http://www.w3.org/2000/svg" xmlns:xlink="http://www.w3.org/1999/xlink" x="0px" y="0px"
	 viewBox="0 0 473 299" style="enable-background:new 0 0 473 299;" xml:space="preserve">
<style type="text/css">
	.st0{fill:#679E63;}
	.st1{fill-rule:evenodd;clip-rule:evenodd;fill:#333333;}
	.st2{fill-rule:evenodd;clip-rule:evenodd;fill:#679E63;}
	.st3{clip-path:url(#XMLID_3_);}
	.st4{fill:none;}
	.st5{fill:url(#SVGID_1_);}
	.st6{fill:url(#SVGID_2_);}
	.st7{fill:url(#SVGID_3_);}
	.st8{fill:url(#SVGID_4_);}
	.st9{fill:url(#SVGID_5_);}
	.st10{fill:url(#SVGID_6_);}
</style>
<g>
	<path class="st0" d="M237.95,284.94c-1.46,0-2.91-0.38-4.19-1.12l-13.34-7.89c-1.99-1.11-1.02-1.51-0.36-1.74
		c2.66-0.92,3.19-1.13,6.03-2.74c0.3-0.17,0.69-0.1,0.99,0.08l10.25,6.08c0.37,0.21,0.9,0.21,1.24,0l39.95-23.06
		c0.37-0.21,0.61-0.64,0.61-1.08v-46.1c0-0.45-0.24-0.87-0.62-1.1l-39.93-23.04c-0.37-0.22-0.86-0.22-1.23,0l-39.92,23.05
		c-0.39,0.22-0.63,0.66-0.63,1.09v46.1c0,0.44,0.25,0.86,0.63,1.07l10.94,6.32c5.94,2.97,9.57-0.53,9.57-4.04V211.3
		c0-0.64,0.52-1.15,1.16-1.15h5.07c0.63,0,1.16,0.51,1.16,1.15v45.52c0,7.92-4.32,12.47-11.83,12.47c-2.31,0-4.13,0-9.2-2.5
		l-10.48-6.03c-2.59-1.5-4.19-4.29-4.19-7.29v-46.1c0-3,1.6-5.79,4.19-7.28L233.76,177c2.53-1.43,5.89-1.43,8.4,0l39.95,23.08
		c2.59,1.5,4.2,4.29,4.2,7.28v46.1c0,3-1.61,5.78-4.2,7.29l-39.95,23.06C240.88,284.56,239.43,284.94,237.95,284.94z"/>
	<path class="st0" d="M250.29,253.18c-17.48,0-21.14-8.02-21.14-14.76c0-0.64,0.51-1.15,1.15-1.15h5.16c0.58,0,1.06,0.41,1.15,0.98
		c0.78,5.26,3.1,7.91,13.68,7.91c8.42,0,12-1.9,12-6.37c0-2.57-1.02-4.48-14.1-5.77c-10.93-1.08-17.69-3.5-17.69-12.24
		c0-8.06,6.79-12.87,18.19-12.87c12.8,0,19.13,4.44,19.93,13.97c0.03,0.33-0.09,0.64-0.31,0.89c-0.22,0.23-0.52,0.37-0.85,0.37
		h-5.18c-0.54,0-1.01-0.38-1.12-0.9c-1.24-5.53-4.27-7.3-12.48-7.3c-9.19,0-10.26,3.2-10.26,5.6c0,2.91,1.26,3.75,13.67,5.39
		c12.28,1.62,18.11,3.92,18.11,12.55C270.21,248.2,262.95,253.18,250.29,253.18z"/>
</g>
<g>
	<path class="st0" d="M307.9,204.83c0,4.24-3.46,7.7-7.7,7.7c-4.2,0-7.7-3.42-7.7-7.7c0-4.36,3.59-7.7,7.7-7.7
		C304.36,197.13,307.9,200.47,307.9,204.83z M293.74,204.81c0,3.59,2.89,6.48,6.44,6.48c3.59,0,6.48-2.95,6.48-6.48
		c0-3.58-2.93-6.44-6.48-6.44C296.68,198.37,293.74,201.18,293.74,204.81z M297.31,200.51h2.98c1.02,0,3.02,0,3.02,2.28
		c0,1.59-1.02,1.91-1.63,2.12c1.18,0.08,1.26,0.86,1.43,1.96c0.08,0.69,0.21,1.87,0.45,2.28h-1.83c-0.04-0.41-0.33-2.61-0.33-2.73
		c-0.12-0.49-0.29-0.73-0.9-0.73h-1.51v3.46h-1.67V200.51z M298.94,204.3h1.34c1.1,0,1.3-0.77,1.3-1.22c0-1.18-0.82-1.18-1.26-1.18
		h-1.38V204.3z"/>
</g>
<path class="st1" d="M114.24,104.57c0-1.84-0.97-3.53-2.56-4.45L69.33,75.75c-0.72-0.42-1.52-0.64-2.33-0.67c-0.07,0-0.38,0-0.44,0
	c-0.81,0.03-1.61,0.25-2.34,0.67l-42.36,24.38c-1.58,0.91-2.56,2.6-2.56,4.45l0.09,65.64c0,0.91,0.47,1.76,1.28,2.21
	c0.79,0.47,1.76,0.47,2.54,0L48.39,158c1.59-0.95,2.56-2.61,2.56-4.44v-30.66c0-1.83,0.97-3.52,2.55-4.43l10.72-6.17
	c0.8-0.46,1.67-0.69,2.56-0.69c0.87,0,1.77,0.23,2.54,0.69l10.71,6.17c1.59,0.91,2.56,2.6,2.56,4.43v30.66
	c0,1.82,0.98,3.5,2.56,4.44l25.16,14.41c0.79,0.47,1.77,0.47,2.56,0c0.78-0.45,1.27-1.3,1.27-2.21L114.24,104.57z"/>
<path class="st1" d="M318.04,14.34c-0.79-0.44-1.76-0.43-2.54,0.03c-0.78,0.46-1.26,1.3-1.26,2.21v65c0,0.64-0.34,1.23-0.89,1.55
	c-0.55,0.32-1.24,0.32-1.79,0l-10.61-6.11c-1.58-0.91-3.53-0.91-5.11,0l-42.37,24.45c-1.58,0.91-2.56,2.6-2.56,4.43v48.92
	c0,1.83,0.98,3.52,2.56,4.43l42.37,24.47c1.58,0.91,3.53,0.91,5.12,0l42.38-24.47c1.58-0.92,2.56-2.6,2.56-4.43V32.88
	c0-1.85-1-3.56-2.62-4.47L318.04,14.34z M314.11,138.74c0,0.46-0.24,0.88-0.64,1.11l-14.55,8.39c-0.39,0.23-0.88,0.23-1.28,0
	l-14.55-8.39c-0.4-0.23-0.64-0.65-0.64-1.11v-16.8c0-0.46,0.24-0.88,0.64-1.11l14.55-8.4c0.4-0.23,0.88-0.23,1.28,0l14.55,8.4
	c0.39,0.23,0.64,0.65,0.64,1.11V138.74z"/>
<g>
	<path class="st1" d="M459.13,121.5c1.58-0.92,2.55-2.6,2.55-4.42v-11.85c0-1.82-0.97-3.51-2.55-4.43l-42.1-24.44
		c-1.58-0.92-3.54-0.92-5.13-0.01l-42.36,24.45c-1.58,0.91-2.56,2.6-2.56,4.43v48.9c0,1.84,0.99,3.54,2.58,4.45l42.09,23.99
		c1.55,0.89,3.45,0.9,5.02,0.03l25.46-14.15c0.81-0.45,1.31-1.3,1.32-2.22c0.01-0.92-0.48-1.78-1.28-2.24l-42.63-24.46
		c-0.8-0.46-1.29-1.3-1.29-2.22v-15.33c0-0.91,0.49-1.76,1.28-2.22l13.27-7.65c0.79-0.46,1.76-0.46,2.55,0l13.27,7.65
		c0.79,0.46,1.28,1.3,1.28,2.22v12.06c0,0.92,0.49,1.76,1.28,2.22c0.79,0.46,1.77,0.45,2.56-0.01L459.13,121.5z"/>
	<path class="st2" d="M413.84,119.21c0.3-0.18,0.68-0.18,0.98,0l8.13,4.69c0.3,0.18,0.49,0.5,0.49,0.85v9.39
		c0,0.35-0.19,0.67-0.49,0.85l-8.13,4.69c-0.3,0.18-0.68,0.18-0.98,0l-8.12-4.69c-0.3-0.18-0.49-0.5-0.49-0.85v-9.39
		c0-0.35,0.19-0.67,0.49-0.85L413.84,119.21z"/>
</g>
<g>
	<defs>
		<path id="XMLID_143_" d="M185.12,76.61c-1.57-0.91-3.51-0.91-5.09,0l-42.13,24.31c-1.58,0.91-2.55,2.59-2.55,4.41V154
			c0,1.82,0.97,3.5,2.54,4.41l42.13,24.33c1.58,0.91,3.52,0.91,5.09,0l42.12-24.33c1.57-0.91,2.54-2.59,2.54-4.41v-48.67
			c0-1.82-0.97-3.5-2.55-4.41L185.12,76.61z"/>
	</defs>
	<linearGradient id="XMLID_2_" gradientUnits="userSpaceOnUse" x1="199.7017" y1="94.7146" x2="161.6368" y2="172.3669">
		<stop  offset="0" style="stop-color:#3F873F"/>
		<stop  offset="0.3296" style="stop-color:#3F8B3D"/>
		<stop  offset="0.6367" style="stop-color:#3E9638"/>
		<stop  offset="0.9341" style="stop-color:#3DA92E"/>
		<stop  offset="1" style="stop-color:#3DAE2B"/>
	</linearGradient>
	<use xlink:href="#XMLID_143_"  style="overflow:visible;fill-rule:evenodd;clip-rule:evenodd;fill:url(#XMLID_2_);"/>
	<clipPath id="XMLID_3_">
		<use xlink:href="#XMLID_143_"  style="overflow:visible;"/>
	</clipPath>
	<g class="st3">
		<path class="st4" d="M179.94,76.61l-42.22,24.31c-1.58,0.91-2.72,2.59-2.72,4.41V154c0,1.2,0.51,2.34,1.31,3.24l47.44-81.15
			C182.48,75.77,181.1,75.94,179.94,76.61z"/>
		<path class="st4" d="M183.99,183.23c0.41-0.11,0.81-0.28,1.19-0.49l42.18-24.33c1.57-0.91,2.65-2.59,2.65-4.41v-48.67
			c0-1.34-0.6-2.6-1.54-3.53L183.99,183.23z"/>
		<linearGradient id="SVGID_1_" gradientUnits="userSpaceOnUse" x1="176.1577" y1="135.3534" x2="282.9649" y2="56.4385">
			<stop  offset="0.1376" style="stop-color:#3F873F"/>
			<stop  offset="0.4016" style="stop-color:#52A044"/>
			<stop  offset="0.7129" style="stop-color:#64B749"/>
			<stop  offset="0.9081" style="stop-color:#6ABF4B"/>
		</linearGradient>
		<path class="st5" d="M227.33,100.92l-42.25-24.31c-0.42-0.24-0.86-0.41-1.32-0.53l-47.44,81.15c0.41,0.46,0.89,0.86,1.42,1.17
			l42.32,24.33c1.2,0.69,2.62,0.85,3.93,0.49l44.47-81.44C228.12,101.46,227.74,101.16,227.33,100.92z"/>
	</g>
	<g class="st3">
		<path class="st4" d="M230,154v-48.67c0-1.82-1.1-3.5-2.67-4.41l-42.25-24.31c-0.49-0.28-1.01-0.46-1.55-0.57l46.32,79.13
			C229.94,154.79,230,154.39,230,154z"/>
		<path class="st4" d="M137.72,100.92c-1.58,0.91-2.72,2.59-2.72,4.41V154c0,1.82,1.16,3.5,2.73,4.41l42.32,24.33
			c1,0.57,2.15,0.78,3.26,0.63l-45.34-82.59L137.72,100.92z"/>
		<linearGradient id="SVGID_2_" gradientUnits="userSpaceOnUse" x1="133.8623" y1="67.8343" x2="231.2793" y2="67.8343">
			<stop  offset="0.0919" style="stop-color:#6ABF4B"/>
			<stop  offset="0.2871" style="stop-color:#64B749"/>
			<stop  offset="0.5984" style="stop-color:#52A044"/>
			<stop  offset="0.8624" style="stop-color:#3F873F"/>
		</linearGradient>
		<polygon class="st6" points="178.63,67.67 178.05,68 178.82,68 		"/>
		<linearGradient id="SVGID_3_" gradientUnits="userSpaceOnUse" x1="133.8623" y1="129.6515" x2="231.2793" y2="129.6515">
			<stop  offset="0.0919" style="stop-color:#6ABF4B"/>
			<stop  offset="0.2871" style="stop-color:#64B749"/>
			<stop  offset="0.5984" style="stop-color:#52A044"/>
			<stop  offset="0.8624" style="stop-color:#3F873F"/>
		</linearGradient>
		<path class="st7" d="M227.35,158.4c1.23-0.71,2.14-1.89,2.49-3.24l-46.32-79.13c-1.21-0.24-2.49-0.06-3.58,0.57l-41.97,24.17
			l45.34,82.59c0.65-0.09,1.28-0.3,1.86-0.63L227.35,158.4z"/>
		<linearGradient id="SVGID_4_" gradientUnits="userSpaceOnUse" x1="133.8623" y1="157.4621" x2="231.2793" y2="157.4621">
			<stop  offset="0.0919" style="stop-color:#6ABF4B"/>
			<stop  offset="0.2871" style="stop-color:#64B749"/>
			<stop  offset="0.5984" style="stop-color:#52A044"/>
			<stop  offset="0.8624" style="stop-color:#3F873F"/>
		</linearGradient>
		<polygon class="st8" points="231.28,157.62 231,157.14 231,157.78 		"/>
		<linearGradient id="SVGID_5_" gradientUnits="userSpaceOnUse" x1="133.8623" y1="170.0318" x2="231.2793" y2="170.0318">
			<stop  offset="0.0919" style="stop-color:#6ABF4B"/>
			<stop  offset="0.2871" style="stop-color:#64B749"/>
			<stop  offset="0.5984" style="stop-color:#52A044"/>
			<stop  offset="0.8624" style="stop-color:#3F873F"/>
		</linearGradient>
		<path class="st9" d="M227.35,158.4l-42.18,24.33c-0.58,0.33-1.21,0.54-1.86,0.63l0.84,1.53L231,157.78v-0.64l-1.16-1.98
			C229.49,156.51,228.58,157.69,227.35,158.4z"/>
		<linearGradient id="SVGID_6_" gradientUnits="userSpaceOnUse" x1="245.4718" y1="92.4124" x2="185.3912" y2="214.9768">
			<stop  offset="0" style="stop-color:#3F873F"/>
			<stop  offset="0.3296" style="stop-color:#3F8B3D"/>
			<stop  offset="0.6367" style="stop-color:#3E9638"/>
			<stop  offset="0.9341" style="stop-color:#3DA92E"/>
			<stop  offset="1" style="stop-color:#3DAE2B"/>
		</linearGradient>
		<path class="st10" d="M227.35,158.4l-42.18,24.33c-0.58,0.33-1.21,0.54-1.86,0.63l0.84,1.53L231,157.78v-0.64l-1.16-1.98
			C229.49,156.51,228.58,157.69,227.35,158.4z"/>
	</g>
</g>
<g>
</g>
<g>
</g>
<g>
</g>
<g>
</g>
<g>
</g>
<g>
</g>
<g>
</g>
<g>
</g>
<g>
</g>
<g>
</g>
<g>
</g>
<g>
</g>
<g>
</g>
<g>
</g>
<g>
</g>
</svg>
