<?xml version="1.0" encoding="UTF-8"?>
<svg width="1108px" height="291px" viewBox="0 0 1108 291" version="1.1" xmlns="http://www.w3.org/2000/svg" xmlns:xlink="http://www.w3.org/1999/xlink">
    <!-- Generator: Sketch 50.2 (55047) - http://www.bohemiancoding.com/sketch -->
    <title>pm2-runtime_white</title>
    <desc>Created with Sketch.</desc>
    <defs></defs>
    <g id="Page-1" stroke="none" stroke-width="1" fill="none" fill-rule="evenodd">
        <g id="pm2-runtime_white">
            <path d="M903,150.93 C903,141.096667 904.206667,132.933333 906.62,126.44 C908.783133,120.290757 912.637469,114.876662 917.74,110.82 C923.306373,106.640557 929.703074,103.701348 936.5,102.2 C945.295828,100.17373 954.236254,98.8363438 963.24,98.2 L1043.7,92.45 C1052.52667,91.7833333 1059.48,90.7033333 1064.56,89.21 C1069.64,87.7166667 1073.47333,85.59 1076.06,82.83 C1078.666,80.0244687 1080.36351,76.4969988 1080.93,72.71 C1081.65665,67.8312797 1081.99106,62.9021606 1081.93,57.97 C1081.97476,52.2814493 1081.49608,46.6008431 1080.5,41 C1079.79069,36.6135812 1077.88788,32.5069726 1075,29.13 C1071.874,25.8227533 1067.8938,23.4450175 1063.5,22.26 C1058.62,20.7533333 1052.09667,20 1043.93,20 L967.93,20 C962.124585,19.9620296 956.322702,20.2960471 950.56,21 C945.887566,21.5105403 941.417836,23.1849698 937.56,25.87 C933.966667,28.4566667 931.256667,32.33 929.43,37.49 C927.603333,42.65 926.69,49.73 926.69,58.73 L926.69,68.73 L903.69,68.73 L903.69,51.73 C903.69,32.7366667 908.936667,19.37 919.43,11.63 C929.923333,3.89 945.853333,0.0133333333 967.22,0 L1043.68,0 C1056.66667,0 1067.16,1.41666667 1075.16,4.25 C1083.16,7.08333333 1089.36667,11.0833333 1093.78,16.25 C1098.27874,21.5970325 1101.3325,28.0075189 1102.65,34.87 C1104.22383,42.8927341 1104.97771,51.0547226 1104.9,59.23 C1104.9,71.23 1103.65,80.6833333 1101.15,87.59 C1098.89115,94.20777 1094.38283,99.8237057 1088.41,103.46 C1082.41,107.133333 1074.41,109.633333 1064.41,110.96 C1054.41,112.286667 1042,113.45 1027.18,114.45 L989.69,116.95 C975.37,117.95 963.96,118.95 955.46,119.95 C946.96,120.95 940.546667,122.45 936.22,124.45 C931.886667,126.45 929.096667,129.196667 927.85,132.69 C926.603333,136.183333 925.98,140.933333 925.98,146.94 L925.98,162.94 L1107.4,162.94 L1107.4,182.94 L903,182.94 L903,150.93 Z" id="Shape" fill="#FFFFFF" fill-rule="nonzero"></path>
            <path d="M274,35.91 L16,35.91 C7.163444,35.91 1.082166e-15,28.746556 0,19.91 C-1.082166e-15,11.073444 7.163444,3.91 16,3.91 L274,3.91 C282.836556,3.91 290,11.073444 290,19.91 C290,28.746556 282.836556,35.91 274,35.91 Z" id="Shape" fill="#3EB1F3" fill-rule="nonzero"></path>
            <path d="M274,182.91 L16,182.91 C7.163444,182.91 1.082166e-15,175.746556 0,166.91 C-1.082166e-15,158.073444 7.163444,150.91 16,150.91 L274,150.91 C282.836556,150.91 290,158.073444 290,166.91 C290,175.746556 282.836556,182.91 274,182.91 Z" id="Shape" fill="#3EB1F3" fill-rule="nonzero"></path>
            <path d="M274,109.91 L16,109.91 C7.163444,109.91 1.082166e-15,102.746556 0,93.91 C-1.082166e-15,85.073444 7.163444,77.91 16,77.91 L274,77.91 C282.836556,77.91 290,85.073444 290,93.91 C290,102.746556 282.836556,109.91 274,109.91 Z" id="Shape" fill="#3EB1F3" fill-rule="nonzero"></path>
            <polygon id="Shape" fill="#FFFFFF" fill-rule="nonzero" points="573.91 2 612.14 2 717.84 153.67 823.54 2 861.77 2 861.77 182.91 837.28 182.91 837.28 24 836.78 24 726.59 182.91 709.1 182.91 598.9 24 598.4 24 598.4 182.91 573.91 182.91"></polygon>
            <path d="M537.93,25.74 C535.603333,19.24 532.27,14.24 527.93,10.74 C523.192284,7.07030059 517.601379,4.66191059 511.68,3.74 C504.412826,2.50739982 497.050649,1.92177212 489.68,1.99 L340.84,1.99 L340.84,22 L484,22 C488.730721,21.949409 493.456411,22.3242512 498.12,23.12 C501.835845,23.7262766 505.374749,25.1356956 508.49,27.25 C511.346114,29.3190109 513.527388,32.1856302 514.76,35.49 C516.18,38.99 516.76,43.41 516.76,48.74 L516.76,66 C516.76,75.49 514.14,82.28 508.76,86.11 C503.38,89.94 495.78,92 486,92 L340.84,92 L340.84,183 L364.84,183 L364.84,112 L485,112 C498.32,112 508.74,110.63 516.23,108.13 C523.72,105.63 529.35,101.78 533.1,96.7 C536.85,91.62 539.18,85.26 540.1,77.7 C541.075065,68.9412615 541.532527,60.132624 541.47,51.32 C541.43,40.75 540.26,32.23 537.93,25.74 Z" id="Shape" fill="#FFFFFF" fill-rule="nonzero"></path>
            <rect id="Rectangle-path" fill="#3EB1F3" fill-rule="nonzero" x="0" y="263" width="786" height="6"></rect>
            <path d="M870.082031,269.292969 L858.269531,269.292969 L854.683594,290 L848.039062,290 L856.933594,238.8125 L872.332031,238.847656 C877.699246,238.871094 881.789048,240.230455 884.601562,242.925781 C887.414077,245.621107 888.597658,249.289039 888.152344,253.929688 C887.89453,257.140641 886.728526,259.964832 884.654297,262.402344 C882.580068,264.839856 879.82033,266.679681 876.375,267.921875 L884.320312,289.542969 L884.285156,290 L877.253906,290 L870.082031,269.292969 Z M859.21875,263.773438 L868.921875,263.808594 C872.296892,263.808594 875.14452,262.912118 877.464844,261.119141 C879.785168,259.326163 881.144529,256.929703 881.542969,253.929688 C881.894533,250.999985 881.308601,248.703133 879.785156,247.039062 C878.261711,245.374992 875.941422,244.496094 872.824219,244.402344 L862.59375,244.367188 L859.21875,263.773438 Z M914.589844,286.238281 C911.613266,289.308609 907.828148,290.796875 903.234375,290.703125 C899.601544,290.609375 896.912118,289.308606 895.166016,286.800781 C893.419913,284.292956 892.769529,280.871115 893.214844,276.535156 L897.292969,251.960938 L903.65625,251.960938 L899.542969,276.640625 C899.425781,277.67188 899.402343,278.679683 899.472656,279.664062 C899.589844,281.351571 900.093746,282.675776 900.984375,283.636719 C901.875004,284.597661 903.11718,285.113281 904.710938,285.183594 C909.257835,285.324219 912.773425,283.484394 915.257812,279.664062 L920.039062,251.960938 L926.402344,251.960938 L919.792969,290 L913.78125,290 L914.589844,286.238281 Z M941.90625,251.925781 L940.992188,256.742188 C944.41408,252.992169 948.304666,251.164062 952.664062,251.257812 C956.250018,251.351563 958.898429,252.593738 960.609375,254.984375 C962.320321,257.375012 962.953127,260.73826 962.507812,265.074219 L958.359375,290 L951.996094,290 L956.179688,264.96875 C956.320313,263.820307 956.332032,262.753911 956.214844,261.769531 C955.816404,258.488265 953.88283,256.8125 950.414062,256.742188 C946.593731,256.671875 943.242202,258.710917 940.359375,262.859375 L935.648438,290 L929.285156,290 L935.894531,251.960938 L941.90625,251.925781 Z M984.972656,242.75 L983.355469,251.960938 L990.28125,251.960938 L989.402344,256.988281 L982.511719,256.988281 L978.539062,280.648438 C978.46875,281.257816 978.457031,281.82031 978.503906,282.335938 C978.66797,284.164072 979.664053,285.078125 981.492188,285.078125 C982.265629,285.078125 983.296869,284.960939 984.585938,284.726562 L984.09375,290.035156 C982.570305,290.457033 981.023445,290.667969 979.453125,290.667969 C976.921862,290.621094 975.023444,289.689462 973.757812,287.873047 C972.492181,286.056632 971.999999,283.613297 972.28125,280.542969 L976.148438,256.988281 L969.433594,256.988281 L970.3125,251.960938 L977.027344,251.960938 L978.644531,242.75 L984.972656,242.75 Z M998.226562,290 L991.898438,290 L998.507812,251.960938 L1004.83594,251.960938 L998.226562,290 Z M1003.46484,238.074219 C1004.54297,238.027344 1005.43945,238.349606 1006.1543,239.041016 C1006.86914,239.732425 1007.22656,240.640619 1007.22656,241.765625 C1007.20312,242.867193 1006.84571,243.769528 1006.1543,244.472656 C1005.46289,245.175785 1004.56641,245.550781 1003.46484,245.597656 C1002.36328,245.644531 1001.46094,245.328128 1000.75781,244.648438 C1000.05468,243.968747 999.714844,243.078131 999.738281,241.976562 C999.761719,240.874994 1000.11328,239.960941 1000.79297,239.234375 C1001.47266,238.507809 1002.36328,238.121094 1003.46484,238.074219 Z M1021.18359,251.925781 L1020.375,256.179688 C1023.56252,252.804671 1027.41795,251.164062 1031.94141,251.257812 C1034.35548,251.304688 1036.40038,251.855463 1038.07617,252.910156 C1039.75196,253.964849 1040.90625,255.453115 1041.53906,257.375 C1045.10158,253.203104 1049.30857,251.164062 1054.16016,251.257812 C1057.95705,251.351563 1060.7578,252.628894 1062.5625,255.089844 C1064.3672,257.550794 1065.03516,260.855448 1064.56641,265.003906 L1060.38281,290 L1054.05469,290 L1058.20312,264.933594 C1058.34375,263.714838 1058.34375,262.601568 1058.20312,261.59375 C1057.75781,258.406234 1055.67189,256.777344 1051.94531,256.707031 C1049.62499,256.660156 1047.52149,257.380852 1045.63477,258.869141 C1043.74804,260.357429 1042.53516,262.308582 1041.99609,264.722656 L1037.67188,290 L1031.27344,290 L1035.49219,264.96875 C1035.79688,262.367174 1035.4043,260.363288 1034.31445,258.957031 C1033.2246,257.550774 1031.53126,256.824219 1029.23438,256.777344 C1025.27342,256.683593 1022.12111,258.488263 1019.77734,262.191406 L1014.96094,290 L1008.59766,290 L1015.20703,251.960938 L1021.18359,251.925781 Z M1086.64453,290.703125 C1081.91013,290.609375 1078.20704,288.863298 1075.53516,285.464844 C1072.86327,282.066389 1071.73828,277.718776 1072.16016,272.421875 L1072.33594,270.910156 C1072.73438,267.1367 1073.85351,263.691422 1075.69336,260.574219 C1077.53321,257.457016 1079.77733,255.10743 1082.42578,253.525391 C1085.07423,251.943351 1087.93358,251.1875 1091.00391,251.257812 C1094.91799,251.351563 1097.98827,252.652331 1100.21484,255.160156 C1102.44142,257.667981 1103.66016,261.066385 1103.87109,265.355469 C1103.94141,266.878914 1103.89453,268.402336 1103.73047,269.925781 L1103.34375,272.84375 L1078.48828,272.84375 C1078.0664,276.28908 1078.63476,279.218738 1080.19336,281.632812 C1081.75196,284.046887 1084.07811,285.300781 1087.17188,285.394531 C1090.92189,285.488282 1094.39061,283.800799 1097.57812,280.332031 L1101.23438,283.425781 C1099.64062,285.722668 1097.584,287.521478 1095.06445,288.822266 C1092.54491,290.123053 1089.7383,290.75 1086.64453,290.703125 Z M1090.6875,256.566406 C1088.06249,256.496093 1085.77149,257.386709 1083.81445,259.238281 C1081.85741,261.089853 1080.30469,263.843732 1079.15625,267.5 L1097.64844,267.535156 L1097.78906,266.972656 C1098.16406,264.019516 1097.68946,261.564463 1096.36523,259.607422 C1095.04101,257.650381 1093.14845,256.636719 1090.6875,256.566406 Z" id="Runtime" fill="#FFFFFF"></path>
        </g>
    </g>
</svg>