<?xml version="1.0" encoding="utf-8"?>
<!-- Generator: Adobe Illustrator 23.0.1, SVG Export Plug-In . SVG Version: 6.00 Build 0)  -->
<svg version="1.1" xmlns="http://www.w3.org/2000/svg" xmlns:xlink="http://www.w3.org/1999/xlink" x="0px" y="0px"
	 viewBox="0 0 1024 921" style="enable-background:new 0 0 1024 921;" xml:space="preserve">
<style type="text/css">
	.st0{display:none;fill:#FFFFFF;}
	.st1{fill-rule:evenodd;clip-rule:evenodd;fill:#010101;}
	.st2{fill-rule:evenodd;clip-rule:evenodd;fill:#FFFFFF;}
	.st3{fill-rule:evenodd;clip-rule:evenodd;}
</style>
<g id="svg2" inkscape:export-filename="C:¥Projects¥Socket.IO-Client¥icons¥socketio_1024x1024.png" inkscape:export-xdpi="90" inkscape:export-ydpi="90" inkscape:version="0.91 r13725" sodipodi:docname="socketio.svg" xmlns:cc="http://creativecommons.org/ns#" xmlns:dc="http://purl.org/dc/elements/1.1/" xmlns:inkscape="http://www.inkscape.org/namespaces/inkscape" xmlns:rdf="http://www.w3.org/1999/02/22-rdf-syntax-ns#" xmlns:sketch="http://www.bohemiancoding.com/sketch/ns" xmlns:sodipodi="http://sodipodi.sourceforge.net/DTD/sodipodi-0.dtd" xmlns:svg="http://www.w3.org/2000/svg">
	
		<sodipodi:namedview  bordercolor="#666666" borderlayer="true" borderopacity="1.0" id="base" inkscape:current-layer="layer1" inkscape:cx="512" inkscape:cy="512" inkscape:document-units="px" inkscape:pageopacity="0.0" inkscape:pageshadow="2" inkscape:window-height="897" inkscape:window-maximized="1" inkscape:window-width="1440" inkscape:window-x="-8" inkscape:window-y="-8" inkscape:zoom="0.63454545" pagecolor="#ffffff" showgrid="false" showguides="false" units="px">
		</sodipodi:namedview>
	<rect id="rect4199" x="-38" y="-87.7" class="st0" width="1100" height="1100"/>
	<g id="logo" transform="matrix(20.930233,0,0,20.930233,61.99999,90.362104)" sketch:type="MSLayerGroup">
		<path id="path4155" inkscape:connector-curvature="0" sketch:type="MSShapeGroup" class="st1" d="M16.2-2.5
			c5.4-1.4,11.4-0.6,16.2,2.4c6,3.6,10,10.4,10,17.4c0.2,7.1-3.5,14.1-9.4,18c-6.6,4.4-15.7,4.6-22.5,0.4
			C3.7,31.5-0.3,23.3,0.7,15.3C1.5,6.9,8-0.5,16.2-2.5L16.2-2.5z"/>
		<path id="path4157" inkscape:connector-curvature="0" sketch:type="MSShapeGroup" class="st2" d="M15.4,0.9
			c10.2-4.1,22.8,3.5,23.9,14.5c1.7,9.9-6.5,19.9-16.6,20.2c-9.5,0.9-18.7-7.1-19-16.7C3,11.2,8.1,3.5,15.4,0.9L15.4,0.9z"/>
		<path id="path4159" inkscape:connector-curvature="0" sketch:type="MSShapeGroup" class="st1" d="M16.4,16.7
			C21,13,25.5,9.1,30.2,5.4c-2.5,3.8-5,7.5-7.4,11.3C20.6,16.7,18.5,16.7,16.4,16.7L16.4,16.7L16.4,16.7z"/>
		<path id="path4161" inkscape:connector-curvature="0" sketch:type="MSShapeGroup" class="st1" d="M20.3,18.8c2.1,0,4.2,0,6.3,0
			c-4.6,3.7-9.1,7.6-13.8,11.3C15.3,26.3,17.8,22.6,20.3,18.8L20.3,18.8L20.3,18.8z"/>
	</g>
	<path id="socket.io" inkscape:connector-curvature="0" sketch:type="MSShapeGroup" class="st3" d="M83.2,1103.7
		c9,5,22.2,8.5,36.9,8.5c32.2,0,49.4-16,49.4-37.9c-0.2-17.9-10.5-29.2-32.4-37.1c-15.5-5.5-21.2-9.2-21.2-17c0-7.5,6-12.7,17-12.7
		c10.7,0,20.4,4,25.7,7l6-21.7c-7-3.7-18.7-7.2-32.2-7.2c-28.2,0-45.9,16.7-45.9,38.1c-0.2,14.2,9.7,27.2,33.4,35.4
		c15,5.2,19.9,9.5,19.9,17.7c0,8-6,13.5-19.4,13.5c-11,0-24.2-4.5-31.2-8.7L83.2,1103.7L83.2,1103.7z M239.4,985.5
		c-36.6,0-62.8,24.4-62.8,64.3c0,38.9,26.4,62.6,60.8,62.6c30.9,0,62.3-19.9,62.3-64.6C299.7,1010.9,275.5,985.5,239.4,985.5
		L239.4,985.5z M238.6,1007.9c20.9,0,29.4,21.7,29.4,40.6c0,24.4-12.2,41.6-29.7,41.6c-18.7,0-30.2-17.7-30.2-41.1
		C208.2,1028.9,216.9,1007.9,238.6,1007.9z M399.5,1083.2c-6,2.5-13.5,4.7-24.2,4.7c-20.9,0-37.1-14.2-37.1-39.1
		c-0.2-22.2,13.7-39.4,37.1-39.4c11,0,18.2,2.5,23.2,4.7l5.5-22.9c-7-3.2-18.4-5.7-29.7-5.7c-42.6,0-67.6,28.4-67.6,64.8
		c0,37.6,24.7,61.8,62.6,61.8c15.2,0,27.9-3.2,34.4-6.2L399.5,1083.2L399.5,1083.2z M446.7,932.6H416v177h30.7v-41.4l10.5-12.2
		l34.9,53.6h37.6l-51.4-71.8l44.9-49.6h-36.9l-29.4,39.1c-3.2,4.2-6.7,9.5-9.7,14.2h-0.5L446.7,932.6L446.7,932.6z M633.7,1057.5
		c0.5-2.7,1-7.2,1-13c0-26.7-13-59.1-52.4-59.1c-38.9,0-59.3,31.7-59.3,65.3c0,37.1,23.2,61.3,62.6,61.3c17.5,0,31.9-3.2,42.4-7.5
		l-4.5-21.2c-9.2,3.5-19.4,5.5-33.7,5.5c-19.4,0-36.6-9.5-37.4-31.4L633.7,1057.5L633.7,1057.5z M552.5,1036.1
		c1.2-12.5,9.2-29.7,28.2-29.7c20.4,0,25.4,18.4,25.2,29.7H552.5z M654.3,960.8v27.4h-17.5v22.9h17.5v57.1c0,16,3,26.9,9.5,33.9
		c5.7,6.2,15.2,10,26.4,10c9.7,0,17.7-1.2,22.2-3l-0.5-23.4c-2.7,0.7-6.7,1.5-12,1.5c-11.7,0-15.7-7.7-15.7-22.4v-53.6h29.2v-22.9
		h-29.2v-34.7L654.3,960.8L654.3,960.8z M739.9,1112.4c11.5,0,18.9-8.5,18.9-19.7c0-11.7-7.7-19.7-18.9-19.7
		c-11,0-18.9,8.2-18.9,19.7C720.9,1103.9,728.6,1112.4,739.9,1112.4z M804,1109.6V988.2h-30.9v121.4H804z M788.6,937.6
		c-10.2,0-17.2,7.2-17.2,16.7c0,9.2,6.7,16.5,17,16.5c10.7,0,17.5-7.2,17.5-16.5C805.5,944.9,799,937.6,788.6,937.6z M881.6,985.5
		c-36.6,0-62.8,24.4-62.8,64.3c0,38.9,26.4,62.6,60.8,62.6c30.9,0,62.3-19.9,62.3-64.6C942,1010.9,917.8,985.5,881.6,985.5
		L881.6,985.5z M880.9,1007.9c20.9,0,29.4,21.7,29.4,40.6c0,24.4-12.2,41.6-29.7,41.6c-18.7,0-30.2-17.7-30.2-41.1
		C850.5,1028.9,859.2,1007.9,880.9,1007.9z"/>
</g>
<g id="レイヤー_2">
</g>
</svg>
