<?xml version="1.0" encoding="utf-8"?>
<!-- Generator: Adobe Illustrator 23.0.1, SVG Export Plug-In . SVG Version: 6.00 Build 0)  -->
<svg version="1.1" xmlns="http://www.w3.org/2000/svg" xmlns:xlink="http://www.w3.org/1999/xlink" x="0px" y="0px"
	 viewBox="0 0 600 161" style="enable-background:new 0 0 600 161;" xml:space="preserve">
<style type="text/css">
	.st0{clip-path:url(#SVGID_14_);}
	.st1{clip-path:url(#SVGID_15_);}
	.st2{clip-path:url(#SVGID_16_);}
	.st3{clip-path:url(#SVGID_17_);}
	.st4{clip-path:url(#SVGID_18_);}
	.st5{clip-path:url(#SVGID_19_);}
	.st6{clip-path:url(#SVGID_20_);}
	.st7{clip-path:url(#SVGID_21_);}
	.st8{clip-path:url(#SVGID_22_);}
	.st9{clip-path:url(#SVGID_23_);}
	.st10{clip-path:url(#SVGID_24_);}
	.st11{clip-path:url(#SVGID_25_);}
	.st12{clip-path:url(#SVGID_26_);}
	.st13{fill:#FFD4F1;}
	.st14{fill:#FFEEF1;}
	.st15{clip-path:url(#SVGID_34_);}
	.st16{clip-path:url(#SVGID_35_);}
	.st17{clip-path:url(#SVGID_36_);}
	.st18{clip-path:url(#SVGID_37_);}
	.st19{clip-path:url(#SVGID_38_);}
	.st20{clip-path:url(#SVGID_39_);}
	.st21{clip-path:url(#SVGID_40_);}
</style>
<g id="レイヤー_2">
</g>
<g id="レイヤー_1">
	<g>
		<defs>
			<path id="SVGID_1_" d="M97.11,142.66c0,0.72-0.56,1.08-1.68,1.08h-0.96h-14.4H66.03c-0.48,0-1,0-1.56,0
				c-1.52,0-2.28-0.3-2.28-0.91c0-0.6,1-0.98,3-1.13c4.16-0.4,6.24-1.08,6.24-2.04c0-1.04-10.92-14.04-32.76-39v34.58
				c0,2.79,0.44,4.53,1.33,5.21c0.89,0.68,3.28,1.02,7.17,1.02c0.89,0,1.34,0.4,1.34,1.2c0,0.72-0.56,1.08-1.69,1.08
				c-0.8,0-1.53,0-2.17,0H27.91c-1.04,0-2.27,0-3.67,0s-2.83,0-4.27,0h-1.08c-1.21,0-1.81-0.34-1.81-1.03
				c0-0.76,1.48-1.18,4.44-1.25c2.72-0.08,4.32-0.68,4.8-1.8c0.24-0.4,0.36-2.92,0.36-7.56V65.26c-0.08-1.68-2.3-2.52-6.65-2.52
				c-1.97,0-2.95-0.44-2.95-1.32c0-0.72,0.69-1.08,2.06-1.08c0.4,0,0.93,0.04,1.58,0.12c1.29,0.16,4.9,0.24,10.8,0.24
				c6.31,0,10.32-0.08,12.02-0.24c0.89-0.08,1.82-0.12,2.79-0.12c1.46,0,2.18,0.44,2.18,1.32c0,0.48-0.23,0.78-0.68,0.9
				c-0.45,0.12-1.87,0.22-4.24,0.3c-2.38,0.08-3.79,0.4-4.24,0.96c-0.45,0.56-0.68,2.36-0.68,5.4V98.5l10.2-10.2
				C64.3,72.8,72.03,64.72,72.03,64.08c0-1.04-1.88-1.53-5.64-1.45c-2.4,0.08-3.6-0.32-3.6-1.21c0-0.56,0.56-0.88,1.68-0.96
				c1.12-0.08,5-0.12,11.64-0.12h6.6c2.8,0,4.4,0.04,4.8,0.12c0.8,0.16,1.2,0.56,1.2,1.2c0,0.88-0.88,1.32-2.65,1.32
				c-3.69-0.08-6.05,0.01-7.1,0.25c-1.04,0.25-2.08,0.92-3.13,2c-5.19,5.45-13.09,13.64-23.7,24.54l-3.2,3.04l-1.54,1.7
				c0.48,0.56,2.48,2.72,6,6.48c6.72,6.96,16.37,18.13,28.93,33.5c2.64,3.2,4.46,5.12,5.46,5.76c1,0.64,2.94,1.04,5.82,1.2
				C95.94,141.62,97.11,142.02,97.11,142.66z"/>
		</defs>
		<defs>
			<path id="SVGID_2_" d="M147.26,89.86c0,0.48-0.52,0.76-1.56,0.84c-2.8,0.24-4.58,0.68-5.34,1.32c-0.76,0.64-2.54,3.76-5.34,9.36
				c-2.48,5.04-4.96,9.68-7.44,13.92c-1.04,1.76-1.64,3-1.8,3.72c-0.16,0.72-0.24,2.2-0.24,4.44v14.88c0,1.6,0.24,2.54,0.72,2.82
				c0.48,0.28,2.12,0.5,4.92,0.66c1.44,0.08,2.16,0.4,2.16,0.96c0,0.56-0.56,0.84-1.68,0.84h-0.72h-2.52h-3.12c-0.64,0-1.8,0-3.48,0
				c-1.76,0-2.92,0-3.48,0c0.08,0-0.54,0-1.86,0c-1.32,0-3.3,0-5.94,0h-1.2c-1.04,0-1.56-0.28-1.56-0.84c0-0.64,1.18-1,3.54-1.08
				c2.36-0.08,3.72-0.32,4.08-0.72c0.36-0.4,0.54-1.8,0.54-4.2v-15.96c-0.48-0.96-1.2-2.36-2.16-4.2l-8.28-14.64
				c-1.2-2.24-2.16-4.04-2.88-5.4c-0.72-1.36-1.56-2.88-2.52-4.56c-0.72-0.8-2.72-1.24-6-1.32c-1.04,0-1.56-0.28-1.56-0.84
				c0-0.64,0.52-0.96,1.56-0.96c-0.08,0,0.68,0,2.28,0c1.6,0,3.28,0,5.04,0h3.72h10.68c0.4,0,0.84,0,1.32,0c1.2,0,1.8,0.32,1.8,0.96
				c0,0.56-1.04,0.84-3.12,0.84c-3.2,0-4.8,0.52-4.8,1.56c0,1.28,4.24,9.12,12.72,23.52c8.16-15.19,12.24-23.19,12.24-23.99
				c0-0.64-0.68-1-2.04-1.09h-2.16h-1.08c-1.36,0-2.04-0.32-2.04-0.96c0-0.56,0.68-0.84,2.04-0.84h4.68h2.88
				C144.26,88.66,147.26,88.98,147.26,89.86z"/>
		</defs>
		<defs>
			<path id="SVGID_3_" d="M203.42,116.68c0,7.74-2.52,14.31-7.56,19.7s-11.2,8.08-18.48,8.08c-7.76,0-14.3-2.73-19.62-8.2
				c-5.32-5.47-7.98-12.15-7.98-20.06c0-8.22,2.54-14.95,7.62-20.18c5.08-5.23,11.58-7.84,19.5-7.84c7.52,0,13.82,2.74,18.9,8.2
				C200.88,101.85,203.42,108.62,203.42,116.68z"/>
		</defs>
		<defs>
			<path id="SVGID_4_" d="M192.14,117.04c0-9.26-1.88-16.56-5.64-21.91c-2.4-3.43-5.72-5.15-9.96-5.15
				c-5.84,0-10.08,3.19-12.72,9.58c-1.84,4.47-2.76,10.14-2.76,17c0,8.22,1.44,14.65,4.32,19.28s6.88,6.94,12,6.94
				C187.22,142.78,192.14,134.2,192.14,117.04z"/>
		</defs>
		<defs>
			<path id="SVGID_5_" d="M267.5,142.66c0,0.48-0.14,0.76-0.42,0.84c-0.28,0.08-1.22,0.12-2.82,0.12h-2.4h-17.64
				c-1.44,0-2.16-0.23-2.16-0.67c0-0.53,1.32-0.9,3.96-1.12c1.6-0.16,2.4-0.48,2.4-0.96c0-0.32-0.92-1.49-2.76-3.5
				c-1.68-1.77-8.12-8.8-19.32-21.1v21.6c0,1.92,0.24,3.04,0.72,3.36c0.48,0.32,2.04,0.52,4.68,0.6c0.88,0,1.32,0.32,1.32,0.96
				c0,0.56-0.6,0.84-1.8,0.84h-0.84c-0.8,0-4.64,0-11.52,0c-3.04,0-5.28,0-6.72,0h-0.84c-1.12,0-1.68-0.32-1.68-0.96
				c0-0.72,1.16-1.04,3.48-0.96c1.6,0,2.52-0.24,2.76-0.72s0.36-2.2,0.36-5.16v-40.2c0-2.24-0.04-3.48-0.12-3.72
				c-0.25-0.64-1.39-0.96-3.42-0.96s-3.05-0.36-3.05-1.08c0-0.56,0.56-0.84,1.69-0.84c0.16,0,0.56,0,1.21,0
				c0.72,0.08,1.33,0.12,1.81,0.12l7.84-0.12c0.4,0,2.09,0.04,5.07,0.12l4.1-0.12c1.12,0,1.69,0.32,1.69,0.96
				c0,0.56-1.32,0.88-3.96,0.96c-1.28,0.08-2.06,0.22-2.34,0.42c-0.28,0.2-0.42,0.86-0.42,1.98v19.8
				c14.96-13.84,22.44-21.04,22.44-21.6c0-0.4-1.64-0.6-4.92-0.6c-0.96,0-1.44-0.32-1.44-0.96c0-0.48,0.28-0.76,0.84-0.84
				c0.56-0.08,2.56-0.12,6-0.12c6.16,0,9.76,0.04,10.8,0.11c1.04,0.08,1.56,0.38,1.56,0.91c0,0.76-0.72,1.1-2.16,1.02h-3.36
				c-1.12-0.08-2.48,0.64-4.08,2.17c-1.04,0.88-2.64,2.33-4.8,4.33c-3.2,3.05-8.08,7.58-14.64,13.59c1.04,1.12,4.84,5.01,11.4,11.67
				l14.16,14.31c2.24,2.25,3.72,3.59,4.44,4.03c0.72,0.44,1.88,0.66,3.48,0.66C267.02,141.82,267.5,142.1,267.5,142.66z"/>
		</defs>
		<defs>
			<path id="SVGID_6_" d="M322.34,116.68c0,7.74-2.52,14.31-7.56,19.7c-5.04,5.39-11.2,8.08-18.48,8.08c-7.76,0-14.3-2.73-19.62-8.2
				c-5.32-5.47-7.98-12.15-7.98-20.06c0-8.22,2.54-14.95,7.62-20.18c5.08-5.23,11.58-7.84,19.5-7.84c7.52,0,13.82,2.74,18.9,8.2
				C319.8,101.85,322.34,108.62,322.34,116.68z"/>
		</defs>
		<defs>
			<path id="SVGID_7_" d="M311.06,117.04c0-9.26-1.88-16.56-5.64-21.91c-2.4-3.43-5.72-5.15-9.96-5.15
				c-5.84,0-10.08,3.19-12.72,9.58c-1.84,4.47-2.76,10.14-2.76,17c0,8.22,1.44,14.65,4.32,19.28s6.88,6.94,12,6.94
				C306.14,142.78,311.06,134.2,311.06,117.04z"/>
		</defs>
		<defs>
			<path id="SVGID_8_" d="M414.62,134.14c0,2.08-0.12,5.52-0.36,10.32h-1.32c-0.48,0-1.64-0.08-3.47-0.24
				c-1.84-0.16-3.91-0.24-6.23-0.24l-49.83-0.36c-1.36,0-2.04-0.36-2.04-1.08c0-0.56,1.08-0.92,3.24-1.08
				c3.04-0.16,4.86-0.5,5.46-1.02c0.6-0.52,0.9-2.02,0.9-4.5V68.5c0-2.96-0.3-4.68-0.9-5.16s-2.74-0.72-6.42-0.72
				c-1.52,0-2.28-0.44-2.28-1.32c0-0.72,0.48-1.08,1.44-1.08h1.08c2.64,0.24,7.88,0.36,15.72,0.36c0.72,0,2.12-0.06,4.2-0.18
				c2.08-0.12,3.8-0.18,5.16-0.18h1.32c1.44,0,2.16,0.4,2.16,1.2c0,0.48-0.22,0.78-0.66,0.9c-0.44,0.12-1.82,0.22-4.14,0.3
				c-2.32,0.08-3.7,0.46-4.14,1.14c-0.44,0.68-0.66,2.78-0.66,6.3v70.8c2.16,0.08,5.16,0.12,9,0.12c9.36,0,15.96-0.48,19.8-1.44
				s6.44-2.76,7.8-5.4c1.36-2.64,2.16-6.2,2.4-10.68c0.08-1.04,0.54-1.56,1.38-1.56c1,0,1.46,0.6,1.38,1.8v3c0,0.16,0,0.52,0,1.08
				c0,0.56,0,1.12,0,1.68V134.14z"/>
		</defs>
		<defs>
			<path id="SVGID_9_" d="M471.98,143.02c0,0.48-0.8,0.72-2.4,0.72h-0.84h-7.44h-3.36c-1.36,0-3.24,0-5.64,0h-3.6h-2.16h-0.6
				c-1.44,0-2.16-0.32-2.16-0.95c0-0.63,1.44-0.99,4.32-1.07c3.44-0.08,5.16-0.47,5.16-1.19c0-0.16-0.24-0.91-0.72-2.26
				c-0.16-0.63-1.08-3.3-2.76-7.99l-1.44-4.05h-17.16c-3.28,8.24-4.92,13-4.92,14.28c0,0.72,0.48,1.12,1.44,1.2l1.56,0.12h1.8
				l1.08,0.36c0.96,0,1.44,0.24,1.44,0.73c0,0.55-0.84,0.83-2.52,0.83c-0.24,0-1.66-0.06-4.26-0.18c-2.6-0.12-4.9-0.18-6.9-0.18
				h-1.08l-1.08,0.18l-1.32,0.18h-0.24c-1.28,0-1.92-0.24-1.92-0.72c0-0.56,0.52-0.88,1.56-0.96c1.44-0.08,2.4-0.16,2.88-0.24
				c1.36-0.24,2.24-0.6,2.64-1.08c0.48-0.24,2.44-4.81,5.88-13.72c1.36-3.61,2.68-6.98,3.96-10.1c0.48-1.12,0.8-1.96,0.96-2.53
				c0.16-0.56,0.48-1.4,0.96-2.53c1.36-3.29,3.28-8.26,5.76-14.92l1.81-5.04l0.83-2.16c0.48-1.2,0.96-1.8,1.44-1.8
				c0.24,0,0.76,1.12,1.56,3.36c2.4,5.84,8.6,21.28,18.6,46.32c0.96,2.48,1.88,3.8,2.76,3.96c0.24,0.08,1.52,0.2,3.84,0.36
				C471.22,142.02,471.98,142.38,471.98,143.02z"/>
		</defs>
		<defs>
			<path id="SVGID_10_" d="M447.61,124.18l-7.72-20.5c-1.94,4.8-4.62,11.63-8.02,20.5H447.61z"/>
		</defs>
		<defs>
			<path id="SVGID_11_" d="M523.7,89.86c0,0.56-0.88,0.84-2.64,0.84c-0.24,0-0.8,0-1.68,0h-1.32c-0.72,0-1.14,0.16-1.26,0.48
				c-0.12,0.32-0.18,1.41-0.18,3.25v44.24c0,2.9-0.04,4.58-0.12,5.06c-0.08,0.48-0.44,0.72-1.08,0.72c-0.88,0-3.73-3.36-8.53-10.07
				c-0.56-0.88-1.43-2.08-2.62-3.61c-0.16-0.24-0.6-0.84-1.31-1.81c-4-5.31-11.24-15.28-21.73-29.92v38.06
				c0,2.98,0.42,4.55,1.26,4.71c0.84,0.16,2.38,0.24,4.62,0.24h0.48c0.96,0,1.44,0.26,1.44,0.78c0,0.6-0.88,0.9-2.64,0.9
				c-0.32,0-1.64-0.08-3.96-0.24c-1.2-0.08-2.28-0.12-3.24-0.12c-0.8,0-1.6,0.04-2.4,0.12c-1.52,0.16-3.16,0.24-4.92,0.24
				c-1.28,0-1.92-0.3-1.92-0.9c0-0.52,0.76-0.78,2.28-0.78h1.08l1.56-0.12c1.92-0.16,2.92-0.52,3-1.09c0.08-0.32,0.12-1.49,0.12-3.5
				v-33.23c0-6.04-0.36-9.67-1.08-10.88c-0.96-1.61-2.84-2.42-5.64-2.42c-2,0-3-0.34-3-1.01c0-0.52,0.52-0.79,1.56-0.79h0.48h6.6
				c0.32,0,0.84,0,1.56,0c0.8,0,1.52,0,2.16,0h4.44l28.32,38.99V94.66c0-2-0.08-3.16-0.24-3.48c-0.16-0.32-0.8-0.48-1.92-0.48
				c-1.04,0-1.88,0-2.52,0h-0.72c-1.52,0-2.28-0.3-2.28-0.9c0-0.37,0.38-0.6,1.14-0.67c0.76-0.08,3.46-0.11,8.1-0.11
				c4.4,0,6.96,0.04,7.68,0.1C523.34,89.2,523.7,89.44,523.7,89.86z"/>
		</defs>
		<defs>
			<path id="SVGID_12_" d="M583.93,116.32c0,9.38-3.6,16.64-10.8,21.77c-5.2,3.69-11.88,5.53-20.04,5.53c0.24,0-0.7,0-2.82,0
				c-2.12,0-5.38,0-9.78,0h-2.64c0.16,0-0.56,0-2.16,0c-1.6,0-3.2,0-4.8,0h-1.08c-1.36,0-2.04-0.38-2.04-1.15
				c0-0.67,0.48-0.97,1.44-0.89h2.76c1.6,0.08,2.48-0.36,2.64-1.31c0.16-0.32,0.24-1.71,0.24-4.18V97.75c0-3.82-0.08-5.85-0.24-6.09
				c-0.4-0.48-1.8-0.76-4.2-0.84c-1.44,0-2.16-0.28-2.16-0.84c0-0.64,0.72-0.96,2.16-0.96c-0.16,0,0.2,0,1.08,0c0.96,0,2.4,0,4.32,0
				h8.04c10.48,0,17.92,0.64,22.32,1.92c5.28,1.52,9.56,4.63,12.84,9.32C582.29,104.96,583.93,110.31,583.93,116.32z"/>
		</defs>
		<defs>
			<path id="SVGID_13_" d="M572.42,115.9c0-16.56-6.69-24.84-20.07-24.84c-4.06,0-6.31,0.22-6.75,0.66
				c-0.44,0.44-0.66,1.9-0.66,4.38v42.36c0,1.44,0.34,2.32,1.01,2.64c0.68,0.32,2.41,0.48,5.2,0.48
				C565.33,141.58,572.42,133.02,572.42,115.9z"/>
		</defs>
		<clipPath id="SVGID_14_">
			<use xlink:href="#SVGID_1_"  style="overflow:visible;"/>
		</clipPath>
		<clipPath id="SVGID_15_" class="st0">
			<use xlink:href="#SVGID_2_"  style="overflow:visible;"/>
		</clipPath>
		<clipPath id="SVGID_16_" class="st1">
			<use xlink:href="#SVGID_3_"  style="overflow:visible;"/>
		</clipPath>
		<clipPath id="SVGID_17_" class="st2">
			<use xlink:href="#SVGID_4_"  style="overflow:visible;"/>
		</clipPath>
		<clipPath id="SVGID_18_" class="st3">
			<use xlink:href="#SVGID_5_"  style="overflow:visible;"/>
		</clipPath>
		<clipPath id="SVGID_19_" class="st4">
			<use xlink:href="#SVGID_6_"  style="overflow:visible;"/>
		</clipPath>
		<clipPath id="SVGID_20_" class="st5">
			<use xlink:href="#SVGID_7_"  style="overflow:visible;"/>
		</clipPath>
		<clipPath id="SVGID_21_" class="st6">
			<use xlink:href="#SVGID_8_"  style="overflow:visible;"/>
		</clipPath>
		<clipPath id="SVGID_22_" class="st7">
			<use xlink:href="#SVGID_9_"  style="overflow:visible;"/>
		</clipPath>
		<clipPath id="SVGID_23_" class="st8">
			<use xlink:href="#SVGID_10_"  style="overflow:visible;"/>
		</clipPath>
		<clipPath id="SVGID_24_" class="st9">
			<use xlink:href="#SVGID_11_"  style="overflow:visible;"/>
		</clipPath>
		<clipPath id="SVGID_25_" class="st10">
			<use xlink:href="#SVGID_12_"  style="overflow:visible;"/>
		</clipPath>
		<clipPath id="SVGID_26_" class="st11">
			<use xlink:href="#SVGID_13_"  style="overflow:visible;"/>
		</clipPath>
		<g class="st12">
			<rect x="-38.09" y="-458" transform="matrix(0.866 0.5 -0.5 0.866 -38.0671 8.0685)" class="st13" width="8" height="782"/>
			<rect x="-31.16" y="-454" transform="matrix(0.866 0.5 -0.5 0.866 -35.1389 5.1403)" class="st14" width="8" height="782"/>
			<rect x="-24.23" y="-450" transform="matrix(0.866 0.5 -0.5 0.866 -32.2107 2.2121)" class="st13" width="8" height="782"/>
			<rect x="-17.31" y="-446" transform="matrix(0.866 0.5 -0.5 0.866 -29.2825 -0.7161)" class="st14" width="8" height="782"/>
			<rect x="-10.38" y="-442" transform="matrix(0.866 0.5 -0.5 0.866 -26.3543 -3.6443)" class="st13" width="8" height="782"/>
			<rect x="-3.45" y="-438" transform="matrix(0.866 0.5 -0.5 0.866 -23.4261 -6.5725)" class="st14" width="8" height="782"/>
			<rect x="3.48" y="-434" transform="matrix(0.866 0.5 -0.5 0.866 -20.4979 -9.5007)" class="st13" width="8" height="782"/>
			<rect x="10.41" y="-430" transform="matrix(0.866 0.5 -0.5 0.866 -17.5697 -12.4289)" class="st14" width="8" height="782"/>
			<rect x="17.34" y="-426" transform="matrix(0.866 0.5 -0.5 0.866 -14.6415 -15.3571)" class="st13" width="8" height="782"/>
			<rect x="24.26" y="-422" transform="matrix(0.866 0.5 -0.5 0.866 -11.7133 -18.2853)" class="st14" width="8" height="782"/>
			<rect x="31.19" y="-418" transform="matrix(0.866 0.5 -0.5 0.866 -8.7851 -21.2135)" class="st13" width="8" height="782"/>
			<rect x="38.12" y="-414" transform="matrix(0.866 0.5 -0.5 0.866 -5.8569 -24.1417)" class="st14" width="8" height="782"/>
			<rect x="45.05" y="-410" transform="matrix(0.866 0.5 -0.5 0.866 -2.9287 -27.0699)" class="st13" width="8" height="782"/>
			
				<rect x="51.98" y="-406" transform="matrix(0.866 0.5 -0.5 0.866 -5.055751e-04 -29.9981)" class="st14" width="8" height="782"/>
			<rect x="58.91" y="-402" transform="matrix(0.866 0.5 -0.5 0.866 2.9277 -32.9263)" class="st13" width="8" height="782"/>
			<rect x="65.83" y="-398" transform="matrix(0.866 0.5 -0.5 0.866 5.8559 -35.8545)" class="st14" width="8" height="782"/>
			<rect x="72.76" y="-394" transform="matrix(0.866 0.5 -0.5 0.866 8.7841 -38.7827)" class="st13" width="8" height="782"/>
			<rect x="79.69" y="-390" transform="matrix(0.866 0.5 -0.5 0.866 11.7123 -41.7109)" class="st14" width="8" height="782"/>
			<rect x="86.62" y="-386" transform="matrix(0.866 0.5 -0.5 0.866 14.6405 -44.6391)" class="st13" width="8" height="782"/>
			<rect x="93.55" y="-382" transform="matrix(0.866 0.5 -0.5 0.866 17.5687 -47.5673)" class="st14" width="8" height="782"/>
			<rect x="100.47" y="-378" transform="matrix(0.866 0.5 -0.5 0.866 20.4969 -50.4955)" class="st13" width="8" height="782"/>
			<rect x="107.4" y="-374" transform="matrix(0.866 0.5 -0.5 0.866 23.4251 -53.4237)" class="st14" width="8" height="782"/>
			<rect x="114.33" y="-370" transform="matrix(0.866 0.5 -0.5 0.866 26.3533 -56.3519)" class="st13" width="8" height="782"/>
			<rect x="121.26" y="-366" transform="matrix(0.866 0.5 -0.5 0.866 29.2815 -59.2801)" class="st14" width="8" height="782"/>
			<rect x="128.19" y="-362" transform="matrix(0.866 0.5 -0.5 0.866 32.2097 -62.2083)" class="st13" width="8" height="782"/>
			<rect x="135.12" y="-358" transform="matrix(0.866 0.5 -0.5 0.866 35.1379 -65.1366)" class="st14" width="8" height="782"/>
			<rect x="142.04" y="-354" transform="matrix(0.866 0.5 -0.5 0.866 38.0661 -68.0648)" class="st13" width="8" height="782"/>
			<rect x="148.97" y="-350" transform="matrix(0.866 0.5 -0.5 0.866 40.9943 -70.993)" class="st14" width="8" height="782"/>
			<rect x="155.9" y="-346" transform="matrix(0.866 0.5 -0.5 0.866 43.9225 -73.9212)" class="st13" width="8" height="782"/>
			<rect x="162.83" y="-342" transform="matrix(0.866 0.5 -0.5 0.866 46.8507 -76.8494)" class="st14" width="8" height="782"/>
			<rect x="169.76" y="-338" transform="matrix(0.866 0.5 -0.5 0.866 49.7789 -79.7776)" class="st13" width="8" height="782"/>
			<rect x="176.68" y="-334" transform="matrix(0.866 0.5 -0.5 0.866 52.7072 -82.7058)" class="st14" width="8" height="782"/>
			<rect x="183.61" y="-330" transform="matrix(0.866 0.5 -0.5 0.866 55.6354 -85.634)" class="st13" width="8" height="782"/>
			<rect x="190.54" y="-326" transform="matrix(0.866 0.5 -0.5 0.866 58.5636 -88.5622)" class="st14" width="8" height="782"/>
			<rect x="197.47" y="-322" transform="matrix(0.866 0.5 -0.5 0.866 61.4918 -91.4904)" class="st13" width="8" height="782"/>
			<rect x="204.4" y="-318" transform="matrix(0.866 0.5 -0.5 0.866 64.42 -94.4186)" class="st14" width="8" height="782"/>
			<rect x="211.33" y="-314" transform="matrix(0.866 0.5 -0.5 0.866 67.3482 -97.3468)" class="st13" width="8" height="782"/>
			<rect x="218.25" y="-310" transform="matrix(0.866 0.5 -0.5 0.866 70.2764 -100.275)" class="st14" width="8" height="782"/>
			<rect x="225.18" y="-306" transform="matrix(0.866 0.5 -0.5 0.866 73.2046 -103.2032)" class="st13" width="8" height="782"/>
			<rect x="232.11" y="-302" transform="matrix(0.866 0.5 -0.5 0.866 76.1328 -106.1314)" class="st14" width="8" height="782"/>
			<rect x="239.04" y="-298" transform="matrix(0.866 0.5 -0.5 0.866 79.061 -109.0596)" class="st13" width="8" height="782"/>
			<rect x="245.97" y="-294" transform="matrix(0.866 0.5 -0.5 0.866 81.9892 -111.9878)" class="st14" width="8" height="782"/>
			<rect x="252.89" y="-290" transform="matrix(0.866 0.5 -0.5 0.866 84.9174 -114.916)" class="st13" width="8" height="782"/>
			<rect x="259.82" y="-286" transform="matrix(0.866 0.5 -0.5 0.866 87.8456 -117.8442)" class="st14" width="8" height="782"/>
			<rect x="266.75" y="-282" transform="matrix(0.866 0.5 -0.5 0.866 90.7738 -120.7724)" class="st13" width="8" height="782"/>
			<rect x="273.68" y="-278" transform="matrix(0.866 0.5 -0.5 0.866 93.702 -123.7006)" class="st14" width="8" height="782"/>
			<rect x="280.61" y="-274" transform="matrix(0.866 0.5 -0.5 0.866 96.6302 -126.6288)" class="st13" width="8" height="782"/>
			<rect x="287.54" y="-270" transform="matrix(0.866 0.5 -0.5 0.866 99.5584 -129.557)" class="st14" width="8" height="782"/>
			<rect x="294.46" y="-266" transform="matrix(0.866 0.5 -0.5 0.866 102.4866 -132.4852)" class="st13" width="8" height="782"/>
			<rect x="301.39" y="-262" transform="matrix(0.866 0.5 -0.5 0.866 105.4148 -135.4134)" class="st14" width="8" height="782"/>
			<rect x="308.32" y="-258" transform="matrix(0.866 0.5 -0.5 0.866 108.343 -138.3416)" class="st13" width="8" height="782"/>
			<rect x="315.25" y="-254" transform="matrix(0.866 0.5 -0.5 0.866 111.2712 -141.2698)" class="st14" width="8" height="782"/>
			<rect x="322.18" y="-250" transform="matrix(0.866 0.5 -0.5 0.866 114.1994 -144.198)" class="st13" width="8" height="782"/>
			<rect x="329.11" y="-246" transform="matrix(0.866 0.5 -0.5 0.866 117.1276 -147.1262)" class="st14" width="8" height="782"/>
			<rect x="336.03" y="-242" transform="matrix(0.866 0.5 -0.5 0.866 120.0558 -150.0544)" class="st13" width="8" height="782"/>
			<rect x="342.96" y="-238" transform="matrix(0.866 0.5 -0.5 0.866 122.984 -152.9827)" class="st14" width="8" height="782"/>
			<rect x="349.89" y="-234" transform="matrix(0.866 0.5 -0.5 0.866 125.9122 -155.9109)" class="st13" width="8" height="782"/>
			<rect x="356.82" y="-230" transform="matrix(0.866 0.5 -0.5 0.866 128.8404 -158.8391)" class="st14" width="8" height="782"/>
			<rect x="363.75" y="-226" transform="matrix(0.866 0.5 -0.5 0.866 131.7686 -161.7673)" class="st13" width="8" height="782"/>
			<rect x="370.67" y="-222" transform="matrix(0.866 0.5 -0.5 0.866 134.6968 -164.6955)" class="st14" width="8" height="782"/>
			<rect x="377.6" y="-218" transform="matrix(0.866 0.5 -0.5 0.866 137.625 -167.6237)" class="st13" width="8" height="782"/>
			<rect x="384.53" y="-214" transform="matrix(0.866 0.5 -0.5 0.866 140.5533 -170.5519)" class="st14" width="8" height="782"/>
			<rect x="391.46" y="-210" transform="matrix(0.866 0.5 -0.5 0.866 143.4814 -173.4801)" class="st13" width="8" height="782"/>
			<rect x="398.39" y="-206" transform="matrix(0.866 0.5 -0.5 0.866 146.4097 -176.4083)" class="st14" width="8" height="782"/>
			<rect x="405.32" y="-202" transform="matrix(0.866 0.5 -0.5 0.866 149.3379 -179.3365)" class="st13" width="8" height="782"/>
			<rect x="412.24" y="-198" transform="matrix(0.866 0.5 -0.5 0.866 152.2661 -182.2647)" class="st14" width="8" height="782"/>
			<rect x="419.17" y="-194" transform="matrix(0.866 0.5 -0.5 0.866 155.1943 -185.1929)" class="st13" width="8" height="782"/>
			<rect x="426.1" y="-190" transform="matrix(0.866 0.5 -0.5 0.866 158.1225 -188.1211)" class="st14" width="8" height="782"/>
			<rect x="433.03" y="-186" transform="matrix(0.866 0.5 -0.5 0.866 161.0507 -191.0493)" class="st13" width="8" height="782"/>
			<rect x="439.96" y="-182" transform="matrix(0.866 0.5 -0.5 0.866 163.9789 -193.9775)" class="st14" width="8" height="782"/>
			<rect x="446.88" y="-178" transform="matrix(0.866 0.5 -0.5 0.866 166.9071 -196.9057)" class="st13" width="8" height="782"/>
			<rect x="453.81" y="-174" transform="matrix(0.866 0.5 -0.5 0.866 169.8353 -199.8339)" class="st14" width="8" height="782"/>
			<rect x="460.74" y="-170" transform="matrix(0.866 0.5 -0.5 0.866 172.7635 -202.7621)" class="st13" width="8" height="782"/>
			<rect x="467.67" y="-166" transform="matrix(0.866 0.5 -0.5 0.866 175.6917 -205.6903)" class="st14" width="8" height="782"/>
			<rect x="474.6" y="-162" transform="matrix(0.866 0.5 -0.5 0.866 178.6199 -208.6185)" class="st13" width="8" height="782"/>
			<rect x="481.53" y="-158" transform="matrix(0.866 0.5 -0.5 0.866 181.5481 -211.5467)" class="st14" width="8" height="782"/>
			<rect x="488.45" y="-154" transform="matrix(0.866 0.5 -0.5 0.866 184.4763 -214.4749)" class="st13" width="8" height="782"/>
			<rect x="495.38" y="-150" transform="matrix(0.866 0.5 -0.5 0.866 187.4045 -217.4031)" class="st14" width="8" height="782"/>
			<rect x="502.31" y="-146" transform="matrix(0.866 0.5 -0.5 0.866 190.3327 -220.3313)" class="st13" width="8" height="782"/>
			<rect x="509.24" y="-142" transform="matrix(0.866 0.5 -0.5 0.866 193.2609 -223.2595)" class="st14" width="8" height="782"/>
			<rect x="516.17" y="-138" transform="matrix(0.866 0.5 -0.5 0.866 196.1891 -226.1877)" class="st13" width="8" height="782"/>
			<rect x="523.09" y="-134" transform="matrix(0.866 0.5 -0.5 0.866 199.1173 -229.1159)" class="st14" width="8" height="782"/>
			<rect x="530.02" y="-130" transform="matrix(0.866 0.5 -0.5 0.866 202.0455 -232.0441)" class="st13" width="8" height="782"/>
			<rect x="536.95" y="-126" transform="matrix(0.866 0.5 -0.5 0.866 204.9737 -234.9723)" class="st14" width="8" height="782"/>
			<rect x="543.88" y="-122" transform="matrix(0.866 0.5 -0.5 0.866 207.9019 -237.9005)" class="st13" width="8" height="782"/>
			<rect x="550.81" y="-118" transform="matrix(0.866 0.5 -0.5 0.866 210.8301 -240.8288)" class="st14" width="8" height="782"/>
			<rect x="557.74" y="-114" transform="matrix(0.866 0.5 -0.5 0.866 213.7583 -243.7569)" class="st13" width="8" height="782"/>
			<rect x="564.66" y="-110" transform="matrix(0.866 0.5 -0.5 0.866 216.6865 -246.6852)" class="st14" width="8" height="782"/>
			<rect x="571.59" y="-106" transform="matrix(0.866 0.5 -0.5 0.866 219.6147 -249.6134)" class="st13" width="8" height="782"/>
			<rect x="578.52" y="-102" transform="matrix(0.866 0.5 -0.5 0.866 222.5429 -252.5416)" class="st14" width="8" height="782"/>
			<rect x="585.45" y="-98" transform="matrix(0.866 0.5 -0.5 0.866 225.4711 -255.4698)" class="st13" width="8" height="782"/>
			<rect x="592.38" y="-94" transform="matrix(0.866 0.5 -0.5 0.866 228.3994 -258.398)" class="st14" width="8" height="782"/>
			<rect x="599.31" y="-90" transform="matrix(0.866 0.5 -0.5 0.866 231.3275 -261.3262)" class="st13" width="8" height="782"/>
			<rect x="606.23" y="-86" transform="matrix(0.866 0.5 -0.5 0.866 234.2558 -264.2544)" class="st14" width="8" height="782"/>
			<rect x="613.16" y="-82" transform="matrix(0.866 0.5 -0.5 0.866 237.184 -267.1826)" class="st13" width="8" height="782"/>
			<rect x="620.09" y="-78" transform="matrix(0.866 0.5 -0.5 0.866 240.1122 -270.1108)" class="st14" width="8" height="782"/>
		</g>
		<use xlink:href="#SVGID_1_"  style="overflow:visible;fill:none;stroke:#000000;stroke-width:0.75;"/>
		<use xlink:href="#SVGID_2_"  style="overflow:visible;fill:none;stroke:#000000;stroke-width:0.75;"/>
		<use xlink:href="#SVGID_3_"  style="overflow:visible;fill:none;stroke:#000000;stroke-width:0.75;"/>
		<use xlink:href="#SVGID_4_"  style="overflow:visible;fill:none;stroke:#000000;stroke-width:0.75;"/>
		<use xlink:href="#SVGID_5_"  style="overflow:visible;fill:none;stroke:#000000;stroke-width:0.75;"/>
		<use xlink:href="#SVGID_6_"  style="overflow:visible;fill:none;stroke:#000000;stroke-width:0.75;"/>
		<use xlink:href="#SVGID_7_"  style="overflow:visible;fill:none;stroke:#000000;stroke-width:0.75;"/>
		<use xlink:href="#SVGID_8_"  style="overflow:visible;fill:none;stroke:#000000;stroke-width:0.75;"/>
		<use xlink:href="#SVGID_9_"  style="overflow:visible;fill:none;stroke:#000000;stroke-width:0.75;"/>
		<use xlink:href="#SVGID_10_"  style="overflow:visible;fill:none;stroke:#000000;stroke-width:0.75;"/>
		<use xlink:href="#SVGID_11_"  style="overflow:visible;fill:none;stroke:#000000;stroke-width:0.75;"/>
		<use xlink:href="#SVGID_12_"  style="overflow:visible;fill:none;stroke:#000000;stroke-width:0.75;"/>
		<use xlink:href="#SVGID_13_"  style="overflow:visible;fill:none;stroke:#000000;stroke-width:0.75;"/>
	</g>
	<g>
		<defs>
			<path id="SVGID_27_" d="M44.95,38.86c0,3.44-1.44,6.37-4.32,8.79c-2.88,2.42-6.35,3.63-10.4,3.63c-2.38,0-5.21-0.66-8.51-1.98
				c-0.88-0.36-1.54-0.54-1.98-0.54c-0.53,0-0.86,0.55-0.99,1.66c-0.04,0.57-0.33,0.86-0.86,0.86c-0.44,0-0.66-0.24-0.66-0.72
				c0-0.32,0.02-0.56,0.07-0.72c0.35-2.44,0.53-4.7,0.53-6.78c0-0.4-0.04-1.52-0.13-3.36c-0.04-0.24-0.07-0.56-0.07-0.96
				c0-0.6,0.26-0.9,0.79-0.9c0.44,0,0.75,0.48,0.92,1.45c1.14,7.19,4.86,10.79,11.15,10.79c2.68,0,4.76-0.69,6.24-2.07
				c1.47-1.38,2.21-3.33,2.21-5.85c0-2.24-0.72-4.15-2.15-5.73c-1.43-1.58-3.88-3.15-7.36-4.71c-4.18-1.88-7.08-3.7-8.71-5.46
				c-1.63-1.76-2.44-3.94-2.44-6.54c0-3.32,1.18-6.06,3.53-8.22c2.35-2.16,5.33-3.24,8.94-3.24c1.5,0,3.56,0.46,6.2,1.38
				c0.92,0.32,1.61,0.48,2.05,0.48c0.48,0,0.8-0.08,0.96-0.24c0.15-0.16,0.3-0.58,0.43-1.26c0.09-0.4,0.33-0.6,0.73-0.6
				c0.44,0,0.66,0.24,0.66,0.72c0,0.32-0.02,0.56-0.07,0.72c-0.13,0.96-0.2,2.12-0.2,3.48c0,1.92,0.11,3.44,0.33,4.56l0.07,0.96
				c0.04,0.44-0.15,0.66-0.59,0.66c-0.48,0-0.81-0.46-0.99-1.38c-0.48-2.36-1.63-4.33-3.43-5.91c-1.8-1.58-3.83-2.37-6.07-2.37
				c-2.2,0-3.95,0.64-5.25,1.92c-1.3,1.28-1.95,3.02-1.95,5.22c0,2.56,0.95,4.62,2.84,6.18c1.06,0.88,3.34,2.12,6.86,3.72
				c4.14,1.88,7.11,3.79,8.91,5.73C44.05,34.17,44.95,36.38,44.95,38.86z"/>
		</defs>
		<defs>
			<path id="SVGID_28_" d="M80.07,47.02c0,0.36-0.55,1-1.65,1.92c-1.89,1.56-4.14,2.34-6.73,2.34c-2.42,0-4.25-0.56-5.48-1.68
				c-0.7-0.64-1.06-2.51-1.06-5.63V26.14c-0.04-0.4-0.29-0.62-0.73-0.66h-2.51c-0.97,0-1.45-0.14-1.45-0.42
				c0-0.28,0.24-0.44,0.72-0.48c3.41-0.28,6.08-1.82,8-4.61c0.26-0.36,0.59-0.55,0.98-0.55c0.31,0,0.46,0.14,0.46,0.42v0.24
				c0,0.2,0,0.54,0,1.02c0,1.68,0.09,2.76,0.26,3.24c0.4,0.08,1.06,0.12,1.98,0.12c2.42,0,4.03-0.1,4.82-0.3
				c0.18-0.04,0.33-0.06,0.46-0.06c0.35,0,0.53,0.17,0.53,0.52c0,0.58-1.78,0.86-5.35,0.86c-0.62,0-1.52,0-2.71,0v11.1
				c0,5.6,0.15,9.11,0.46,10.53c0.31,1.42,1.32,2.13,3.04,2.13c1.45,0,3.08-0.74,4.88-2.22c0.18-0.2,0.37-0.3,0.59-0.3
				C79.91,46.72,80.07,46.82,80.07,47.02z"/>
		</defs>
		<defs>
			<path id="SVGID_29_" d="M120.32,47.86c0,0.68-0.78,1.39-2.33,2.13s-3.05,1.11-4.5,1.11c-3.02,0-4.6-1.42-4.73-4.26
				c-1.66,2.96-4.25,4.44-7.75,4.44c-1.88,0-3.44-0.51-4.66-1.53c-1.23-1.02-1.84-2.33-1.84-3.93c0-3.28,2.16-5.88,6.47-7.8
				c1.48-0.64,4.05-1.28,7.72-1.92v-1.5c0-3.52-0.2-5.84-0.59-6.96c-0.7-2.04-2.29-3.06-4.75-3.06c-1.54,0-2.83,0.38-3.86,1.14
				c-1.03,0.76-1.55,1.72-1.55,2.88c0,0.32,0.27,0.48,0.81,0.48c0.54,0,1.02,0.24,1.45,0.72c0.43,0.48,0.65,1.02,0.65,1.62
				c0,1.76-0.96,2.64-2.87,2.64c-1,0-1.83-0.31-2.48-0.93c-0.65-0.62-0.98-1.41-0.98-2.37c0-1.88,0.81-3.5,2.44-4.86
				c1.8-1.48,4.31-2.22,7.52-2.22c4.84,0,7.81,1.2,8.91,3.6c0.4,0.92,0.59,2.74,0.59,5.46v11.22c0,1.84,0.02,2.92,0.07,3.24
				c0.22,1.44,0.86,2.16,1.91,2.16c1.23,0,2.24-0.4,3.04-1.2c0.44-0.44,0.77-0.66,0.99-0.66C120.21,47.5,120.32,47.62,120.32,47.86z
				"/>
		</defs>
		<defs>
			<path id="SVGID_30_" d="M108.71,41.5v-4.38c-3.25,0.68-5.58,1.57-6.99,2.67c-1.41,1.1-2.11,2.57-2.11,4.41
				c0,1.28,0.4,2.33,1.2,3.15c0.8,0.82,1.81,1.23,3.03,1.23c1.86,0,3.36-0.96,4.49-2.88C108.58,45.26,108.71,43.86,108.71,41.5z"/>
		</defs>
		<defs>
			<path id="SVGID_31_" d="M153.65,27.88c0,0.92-0.31,1.68-0.92,2.28c-0.62,0.6-1.41,0.9-2.38,0.9c-0.79,0-1.45-0.21-1.98-0.63
				c-0.53-0.42-0.79-0.95-0.79-1.59c0-0.56,0.2-1.04,0.59-1.44c0.4-0.4,0.59-0.68,0.59-0.84c0-0.6-0.48-0.9-1.45-0.9
				c-1.23,0-2.29,0.7-3.17,2.09c-1.01,1.63-1.52,4.66-1.52,9.08v11.82c0,0.48,0.19,0.78,0.56,0.9c0.37,0.12,1.51,0.2,3.4,0.24
				c0.48,0.08,0.73,0.24,0.73,0.48c0,0.28-0.29,0.42-0.86,0.42c-1.01,0-1.96,0-2.84,0c-0.88,0-2.55,0-5.02,0c-1.28,0-2.2,0-2.77,0
				c-0.57,0-1.3,0-2.18,0c-0.7,0-1.06-0.12-1.06-0.36c0-0.24,0.29-0.36,0.86-0.36h0.92c1.5,0,2.38-0.16,2.64-0.48
				c0.09-0.16,0.13-0.9,0.13-2.23V30.67c0-2.21-0.36-3.49-1.09-3.83c-0.73-0.34-1.88-0.53-3.46-0.57c-0.53,0-0.79-0.14-0.79-0.42
				c0-0.28,0.22-0.42,0.66-0.42h0.46c0.66,0,1.32,0.03,1.98,0.09c0.66,0.06,0.95,0.09,0.86,0.09c1.63,0,3.43-0.42,5.41-1.26
				l0.86-0.36l0.53-0.18c0.18,0.96,0.26,1.92,0.26,2.88v1.2c1.41-2.72,3.39-4.08,5.94-4.08c1.41,0,2.57,0.39,3.5,1.17
				C153.19,25.75,153.65,26.72,153.65,27.88z"/>
		</defs>
		<defs>
			<path id="SVGID_32_" d="M189.16,27.88c0,0.92-0.31,1.68-0.92,2.28c-0.62,0.6-1.41,0.9-2.38,0.9c-0.79,0-1.45-0.21-1.98-0.63
				c-0.53-0.42-0.79-0.95-0.79-1.59c0-0.56,0.2-1.04,0.59-1.44c0.4-0.4,0.59-0.68,0.59-0.84c0-0.6-0.48-0.9-1.45-0.9
				c-1.23,0-2.29,0.7-3.17,2.09c-1.01,1.63-1.52,4.66-1.52,9.08v11.82c0,0.48,0.19,0.78,0.56,0.9c0.37,0.12,1.51,0.2,3.4,0.24
				c0.48,0.08,0.73,0.24,0.73,0.48c0,0.28-0.29,0.42-0.86,0.42c-1.01,0-1.96,0-2.84,0c-0.88,0-2.55,0-5.02,0c-1.28,0-2.2,0-2.77,0
				c-0.57,0-1.3,0-2.18,0c-0.7,0-1.06-0.12-1.06-0.36c0-0.24,0.29-0.36,0.86-0.36h0.92c1.5,0,2.38-0.16,2.64-0.48
				c0.09-0.16,0.13-0.9,0.13-2.23V30.67c0-2.21-0.36-3.49-1.09-3.83c-0.73-0.34-1.88-0.53-3.46-0.57c-0.53,0-0.79-0.14-0.79-0.42
				c0-0.28,0.22-0.42,0.66-0.42h0.46c0.66,0,1.32,0.03,1.98,0.09c0.66,0.06,0.95,0.09,0.86,0.09c1.63,0,3.43-0.42,5.41-1.26
				l0.86-0.36l0.53-0.18c0.18,0.96,0.26,1.92,0.26,2.88v1.2c1.41-2.72,3.39-4.08,5.94-4.08c1.41,0,2.57,0.39,3.5,1.17
				C188.7,25.75,189.16,26.72,189.16,27.88z"/>
		</defs>
		<defs>
			<path id="SVGID_33_" d="M230.48,24.77c0,0.29-0.53,0.45-1.58,0.49c-1.06,0.04-1.73,0.12-2.01,0.24
				c-0.29,0.12-0.54,0.47-0.76,1.04l-0.46,1.1l-0.53,1.5c-0.62,1.84-1.54,4.58-2.77,8.22C218.88,47.52,216,55.4,213.71,61
				c-1.41,3.4-3.34,5.1-5.81,5.1c-1.06,0-1.93-0.28-2.61-0.84c-0.68-0.56-1.02-1.28-1.02-2.16c0-0.76,0.27-1.38,0.82-1.86
				c0.55-0.48,1.26-0.72,2.15-0.72c1.19,0,2.05,0.44,2.57,1.32c0.4,0.68,0.73,1.02,0.99,1.02c0.4,0,1.01-0.98,1.85-2.94
				c1.23-2.92,2.2-5.54,2.9-7.86c-3.26-7.76-6.03-14.54-8.32-20.34c-1.58-3.96-2.46-5.96-2.64-6c-0.26-0.2-0.98-0.3-2.15-0.3
				c-1.17,0-1.75-0.2-1.75-0.6c0-0.32,0.29-0.48,0.86-0.48c0.48,0,1.23,0.04,2.24,0.12c1.01,0.08,1.78,0.12,2.31,0.12
				c0.18,0,0.57,0,1.19,0c0.92-0.05,2.2-0.11,3.83-0.16l3.37-0.08c0.48,0,0.73,0.17,0.73,0.51c0,0.3-0.81,0.47-2.44,0.51
				c-1.36,0.04-2.05,0.24-2.05,0.59c0,0.31,0.45,1.54,1.34,3.66c0.35,0.92,0.72,1.88,1.11,2.88l1.15,2.99
				c0.3,0.88,1.1,2.89,2.39,6.02c0.45,0.96,0.95,2.12,1.5,3.49c4.22-12.04,6.33-18.36,6.33-18.96c0-0.36-0.17-0.58-0.5-0.66
				s-1.27-0.12-2.82-0.12c-0.44,0-0.66-0.16-0.66-0.48c0-0.28,0.26-0.42,0.79-0.42c0.22,0,0.4,0.03,0.53,0.08
				c1.5,0.11,2.73,0.16,3.7,0.16h1.85c0.79,0,1.31-0.04,1.55-0.12c0.24-0.08,0.54-0.12,0.89-0.12
				C230.28,24.34,230.48,24.48,230.48,24.77z"/>
		</defs>
		<clipPath id="SVGID_34_">
			<use xlink:href="#SVGID_27_"  style="overflow:visible;"/>
		</clipPath>
		<clipPath id="SVGID_35_" class="st15">
			<use xlink:href="#SVGID_28_"  style="overflow:visible;"/>
		</clipPath>
		<clipPath id="SVGID_36_" class="st16">
			<use xlink:href="#SVGID_29_"  style="overflow:visible;"/>
		</clipPath>
		<clipPath id="SVGID_37_" class="st17">
			<use xlink:href="#SVGID_30_"  style="overflow:visible;"/>
		</clipPath>
		<clipPath id="SVGID_38_" class="st18">
			<use xlink:href="#SVGID_31_"  style="overflow:visible;"/>
		</clipPath>
		<clipPath id="SVGID_39_" class="st19">
			<use xlink:href="#SVGID_32_"  style="overflow:visible;"/>
		</clipPath>
		<clipPath id="SVGID_40_" class="st20">
			<use xlink:href="#SVGID_33_"  style="overflow:visible;"/>
		</clipPath>
		<g class="st21">
			<rect x="-51.09" y="-422" transform="matrix(0.866 0.5 -0.5 0.866 -21.8088 19.3916)" class="st13" width="8" height="782"/>
			<rect x="-44.16" y="-418" transform="matrix(0.866 0.5 -0.5 0.866 -18.8806 16.4634)" class="st14" width="8" height="782"/>
			<rect x="-37.23" y="-414" transform="matrix(0.866 0.5 -0.5 0.866 -15.9524 13.5352)" class="st13" width="8" height="782"/>
			<rect x="-30.31" y="-410" transform="matrix(0.866 0.5 -0.5 0.866 -13.0242 10.607)" class="st14" width="8" height="782"/>
			<rect x="-23.38" y="-406" transform="matrix(0.866 0.5 -0.5 0.866 -10.096 7.6788)" class="st13" width="8" height="782"/>
			<rect x="-16.45" y="-402" transform="matrix(0.866 0.5 -0.5 0.866 -7.1678 4.7506)" class="st14" width="8" height="782"/>
			<rect x="-9.52" y="-398" transform="matrix(0.866 0.5 -0.5 0.866 -4.2396 1.8224)" class="st13" width="8" height="782"/>
			<rect x="-2.59" y="-394" transform="matrix(0.866 0.5 -0.5 0.866 -1.3114 -1.1058)" class="st14" width="8" height="782"/>
			<rect x="4.34" y="-390" transform="matrix(0.866 0.5 -0.5 0.866 1.6168 -4.034)" class="st13" width="8" height="782"/>
			<rect x="11.26" y="-386" transform="matrix(0.866 0.5 -0.5 0.866 4.545 -6.9622)" class="st14" width="8" height="782"/>
			<rect x="18.19" y="-382" transform="matrix(0.866 0.5 -0.5 0.866 7.4732 -9.8904)" class="st13" width="8" height="782"/>
			<rect x="25.12" y="-378" transform="matrix(0.866 0.5 -0.5 0.866 10.4014 -12.8186)" class="st14" width="8" height="782"/>
			<rect x="32.05" y="-374" transform="matrix(0.866 0.5 -0.5 0.866 13.3296 -15.7468)" class="st13" width="8" height="782"/>
			<rect x="38.98" y="-370" transform="matrix(0.866 0.5 -0.5 0.866 16.2578 -18.675)" class="st14" width="8" height="782"/>
			<rect x="45.91" y="-366" transform="matrix(0.866 0.5 -0.5 0.866 19.186 -21.6032)" class="st13" width="8" height="782"/>
			<rect x="52.83" y="-362" transform="matrix(0.866 0.5 -0.5 0.866 22.1142 -24.5314)" class="st14" width="8" height="782"/>
			<rect x="59.76" y="-358" transform="matrix(0.866 0.5 -0.5 0.866 25.0424 -27.4596)" class="st13" width="8" height="782"/>
			<rect x="66.69" y="-354" transform="matrix(0.866 0.5 -0.5 0.866 27.9706 -30.3878)" class="st14" width="8" height="782"/>
			<rect x="73.62" y="-350" transform="matrix(0.866 0.5 -0.5 0.866 30.8988 -33.316)" class="st13" width="8" height="782"/>
			<rect x="80.55" y="-346" transform="matrix(0.866 0.5 -0.5 0.866 33.827 -36.2442)" class="st14" width="8" height="782"/>
			<rect x="87.47" y="-342" transform="matrix(0.866 0.5 -0.5 0.866 36.7552 -39.1725)" class="st13" width="8" height="782"/>
			<rect x="94.4" y="-338" transform="matrix(0.866 0.5 -0.5 0.866 39.6834 -42.1007)" class="st14" width="8" height="782"/>
			<rect x="101.33" y="-334" transform="matrix(0.866 0.5 -0.5 0.866 42.6117 -45.0289)" class="st13" width="8" height="782"/>
			<rect x="108.26" y="-330" transform="matrix(0.866 0.5 -0.5 0.866 45.5399 -47.9571)" class="st14" width="8" height="782"/>
			<rect x="115.19" y="-326" transform="matrix(0.866 0.5 -0.5 0.866 48.4681 -50.8853)" class="st13" width="8" height="782"/>
			<rect x="122.12" y="-322" transform="matrix(0.866 0.5 -0.5 0.866 51.3963 -53.8135)" class="st14" width="8" height="782"/>
			<rect x="129.04" y="-318" transform="matrix(0.866 0.5 -0.5 0.866 54.3245 -56.7417)" class="st13" width="8" height="782"/>
			<rect x="135.97" y="-314" transform="matrix(0.866 0.5 -0.5 0.866 57.2527 -59.6699)" class="st14" width="8" height="782"/>
			<rect x="142.9" y="-310" transform="matrix(0.866 0.5 -0.5 0.866 60.1809 -62.5981)" class="st13" width="8" height="782"/>
			<rect x="149.83" y="-306" transform="matrix(0.866 0.5 -0.5 0.866 63.1091 -65.5263)" class="st14" width="8" height="782"/>
			<rect x="156.76" y="-302" transform="matrix(0.866 0.5 -0.5 0.866 66.0373 -68.4545)" class="st13" width="8" height="782"/>
			<rect x="163.68" y="-298" transform="matrix(0.866 0.5 -0.5 0.866 68.9655 -71.3827)" class="st14" width="8" height="782"/>
			<rect x="170.61" y="-294" transform="matrix(0.866 0.5 -0.5 0.866 71.8937 -74.3109)" class="st13" width="8" height="782"/>
			<rect x="177.54" y="-290" transform="matrix(0.866 0.5 -0.5 0.866 74.8219 -77.2391)" class="st14" width="8" height="782"/>
			<rect x="184.47" y="-286" transform="matrix(0.866 0.5 -0.5 0.866 77.7501 -80.1673)" class="st13" width="8" height="782"/>
			<rect x="191.4" y="-282" transform="matrix(0.866 0.5 -0.5 0.866 80.6783 -83.0955)" class="st14" width="8" height="782"/>
			<rect x="198.33" y="-278" transform="matrix(0.866 0.5 -0.5 0.866 83.6065 -86.0237)" class="st13" width="8" height="782"/>
			<rect x="205.25" y="-274" transform="matrix(0.866 0.5 -0.5 0.866 86.5347 -88.9519)" class="st14" width="8" height="782"/>
			<rect x="212.18" y="-270" transform="matrix(0.866 0.5 -0.5 0.866 89.4629 -91.8801)" class="st13" width="8" height="782"/>
			<rect x="219.11" y="-266" transform="matrix(0.866 0.5 -0.5 0.866 92.3911 -94.8083)" class="st14" width="8" height="782"/>
			<rect x="226.04" y="-262" transform="matrix(0.866 0.5 -0.5 0.866 95.3193 -97.7365)" class="st13" width="8" height="782"/>
			<rect x="232.97" y="-258" transform="matrix(0.866 0.5 -0.5 0.866 98.2475 -100.6647)" class="st14" width="8" height="782"/>
			<rect x="239.89" y="-254" transform="matrix(0.866 0.5 -0.5 0.866 101.1757 -103.5929)" class="st13" width="8" height="782"/>
			<rect x="246.82" y="-250" transform="matrix(0.866 0.5 -0.5 0.866 104.1039 -106.5211)" class="st14" width="8" height="782"/>
			<rect x="253.75" y="-246" transform="matrix(0.866 0.5 -0.5 0.866 107.0321 -109.4493)" class="st13" width="8" height="782"/>
			<rect x="260.68" y="-242" transform="matrix(0.866 0.5 -0.5 0.866 109.9603 -112.3775)" class="st14" width="8" height="782"/>
			<rect x="267.61" y="-238" transform="matrix(0.866 0.5 -0.5 0.866 112.8885 -115.3057)" class="st13" width="8" height="782"/>
			<rect x="274.54" y="-234" transform="matrix(0.866 0.5 -0.5 0.866 115.8167 -118.2339)" class="st14" width="8" height="782"/>
			<rect x="281.46" y="-230" transform="matrix(0.866 0.5 -0.5 0.866 118.7449 -121.1621)" class="st13" width="8" height="782"/>
			<rect x="288.39" y="-226" transform="matrix(0.866 0.5 -0.5 0.866 121.6731 -124.0903)" class="st14" width="8" height="782"/>
			<rect x="295.32" y="-222" transform="matrix(0.866 0.5 -0.5 0.866 124.6013 -127.0185)" class="st13" width="8" height="782"/>
			<rect x="302.25" y="-218" transform="matrix(0.866 0.5 -0.5 0.866 127.5295 -129.9467)" class="st14" width="8" height="782"/>
			<rect x="309.18" y="-214" transform="matrix(0.866 0.5 -0.5 0.866 130.4577 -132.875)" class="st13" width="8" height="782"/>
			<rect x="316.11" y="-210" transform="matrix(0.866 0.5 -0.5 0.866 133.386 -135.8032)" class="st14" width="8" height="782"/>
			<rect x="323.03" y="-206" transform="matrix(0.866 0.5 -0.5 0.866 136.3142 -138.7314)" class="st13" width="8" height="782"/>
			<rect x="329.96" y="-202" transform="matrix(0.866 0.5 -0.5 0.866 139.2424 -141.6596)" class="st14" width="8" height="782"/>
			<rect x="336.89" y="-198" transform="matrix(0.866 0.5 -0.5 0.866 142.1706 -144.5878)" class="st13" width="8" height="782"/>
			<rect x="343.82" y="-194" transform="matrix(0.866 0.5 -0.5 0.866 145.0988 -147.516)" class="st14" width="8" height="782"/>
			<rect x="350.75" y="-190" transform="matrix(0.866 0.5 -0.5 0.866 148.027 -150.4442)" class="st13" width="8" height="782"/>
			<rect x="357.67" y="-186" transform="matrix(0.866 0.5 -0.5 0.866 150.9552 -153.3724)" class="st14" width="8" height="782"/>
			<rect x="364.6" y="-182" transform="matrix(0.866 0.5 -0.5 0.866 153.8834 -156.3006)" class="st13" width="8" height="782"/>
			<rect x="371.53" y="-178" transform="matrix(0.866 0.5 -0.5 0.866 156.8116 -159.2288)" class="st14" width="8" height="782"/>
			<rect x="378.46" y="-174" transform="matrix(0.866 0.5 -0.5 0.866 159.7398 -162.157)" class="st13" width="8" height="782"/>
			<rect x="385.39" y="-170" transform="matrix(0.866 0.5 -0.5 0.866 162.668 -165.0852)" class="st14" width="8" height="782"/>
			<rect x="392.32" y="-166" transform="matrix(0.866 0.5 -0.5 0.866 165.5962 -168.0134)" class="st13" width="8" height="782"/>
			<rect x="399.24" y="-162" transform="matrix(0.866 0.5 -0.5 0.866 168.5244 -170.9416)" class="st14" width="8" height="782"/>
			<rect x="406.17" y="-158" transform="matrix(0.866 0.5 -0.5 0.866 171.4526 -173.8698)" class="st13" width="8" height="782"/>
			<rect x="413.1" y="-154" transform="matrix(0.866 0.5 -0.5 0.866 174.3808 -176.798)" class="st14" width="8" height="782"/>
			<rect x="420.03" y="-150" transform="matrix(0.866 0.5 -0.5 0.866 177.309 -179.7262)" class="st13" width="8" height="782"/>
			<rect x="426.96" y="-146" transform="matrix(0.866 0.5 -0.5 0.866 180.2372 -182.6544)" class="st14" width="8" height="782"/>
			<rect x="433.88" y="-142" transform="matrix(0.866 0.5 -0.5 0.866 183.1654 -185.5826)" class="st13" width="8" height="782"/>
			<rect x="440.81" y="-138" transform="matrix(0.866 0.5 -0.5 0.866 186.0936 -188.5108)" class="st14" width="8" height="782"/>
			<rect x="447.74" y="-134" transform="matrix(0.866 0.5 -0.5 0.866 189.0218 -191.439)" class="st13" width="8" height="782"/>
			<rect x="454.67" y="-130" transform="matrix(0.866 0.5 -0.5 0.866 191.95 -194.3672)" class="st14" width="8" height="782"/>
			<rect x="461.6" y="-126" transform="matrix(0.866 0.5 -0.5 0.866 194.8782 -197.2954)" class="st13" width="8" height="782"/>
			<rect x="468.53" y="-122" transform="matrix(0.866 0.5 -0.5 0.866 197.8064 -200.2236)" class="st14" width="8" height="782"/>
			<rect x="475.45" y="-118" transform="matrix(0.866 0.5 -0.5 0.866 200.7346 -203.1518)" class="st13" width="8" height="782"/>
			<rect x="482.38" y="-114" transform="matrix(0.866 0.5 -0.5 0.866 203.6628 -206.08)" class="st14" width="8" height="782"/>
			<rect x="489.31" y="-110" transform="matrix(0.866 0.5 -0.5 0.866 206.591 -209.0082)" class="st13" width="8" height="782"/>
			<rect x="496.24" y="-106" transform="matrix(0.866 0.5 -0.5 0.866 209.5192 -211.9364)" class="st14" width="8" height="782"/>
			<rect x="503.17" y="-102" transform="matrix(0.866 0.5 -0.5 0.866 212.4474 -214.8646)" class="st13" width="8" height="782"/>
			<rect x="510.09" y="-98" transform="matrix(0.866 0.5 -0.5 0.866 215.3756 -217.7928)" class="st14" width="8" height="782"/>
			<rect x="517.02" y="-94" transform="matrix(0.866 0.5 -0.5 0.866 218.3038 -220.7211)" class="st13" width="8" height="782"/>
			<rect x="523.95" y="-90" transform="matrix(0.866 0.5 -0.5 0.866 221.2321 -223.6493)" class="st14" width="8" height="782"/>
			<rect x="530.88" y="-86" transform="matrix(0.866 0.5 -0.5 0.866 224.1602 -226.5775)" class="st13" width="8" height="782"/>
			<rect x="537.81" y="-82" transform="matrix(0.866 0.5 -0.5 0.866 227.0885 -229.5057)" class="st14" width="8" height="782"/>
			<rect x="544.74" y="-78" transform="matrix(0.866 0.5 -0.5 0.866 230.0167 -232.4339)" class="st13" width="8" height="782"/>
			<rect x="551.66" y="-74" transform="matrix(0.866 0.5 -0.5 0.866 232.9449 -235.3621)" class="st14" width="8" height="782"/>
			<rect x="558.59" y="-70" transform="matrix(0.866 0.5 -0.5 0.866 235.8731 -238.2903)" class="st13" width="8" height="782"/>
			<rect x="565.52" y="-66" transform="matrix(0.866 0.5 -0.5 0.866 238.8013 -241.2185)" class="st14" width="8" height="782"/>
			<rect x="572.45" y="-62" transform="matrix(0.866 0.5 -0.5 0.866 241.7295 -244.1467)" class="st13" width="8" height="782"/>
			<rect x="579.38" y="-58" transform="matrix(0.866 0.5 -0.5 0.866 244.6577 -247.0749)" class="st14" width="8" height="782"/>
			<rect x="586.31" y="-54" transform="matrix(0.866 0.5 -0.5 0.866 247.5859 -250.0031)" class="st13" width="8" height="782"/>
			<rect x="593.23" y="-50" transform="matrix(0.866 0.5 -0.5 0.866 250.5141 -252.9313)" class="st14" width="8" height="782"/>
			<rect x="600.16" y="-46" transform="matrix(0.866 0.5 -0.5 0.866 253.4423 -255.8595)" class="st13" width="8" height="782"/>
			<rect x="607.09" y="-42" transform="matrix(0.866 0.5 -0.5 0.866 256.3705 -258.7877)" class="st14" width="8" height="782"/>
		</g>
		<use xlink:href="#SVGID_27_"  style="overflow:visible;fill:none;stroke:#000000;stroke-width:0.5;"/>
		<use xlink:href="#SVGID_28_"  style="overflow:visible;fill:none;stroke:#000000;stroke-width:0.5;"/>
		<use xlink:href="#SVGID_29_"  style="overflow:visible;fill:none;stroke:#000000;stroke-width:0.5;"/>
		<use xlink:href="#SVGID_30_"  style="overflow:visible;fill:none;stroke:#000000;stroke-width:0.5;"/>
		<use xlink:href="#SVGID_31_"  style="overflow:visible;fill:none;stroke:#000000;stroke-width:0.5;"/>
		<use xlink:href="#SVGID_32_"  style="overflow:visible;fill:none;stroke:#000000;stroke-width:0.5;"/>
		<use xlink:href="#SVGID_33_"  style="overflow:visible;fill:none;stroke:#000000;stroke-width:0.5;"/>
	</g>
	<g>
	</g>
	<g>
	</g>
	<g>
	</g>
	<g>
	</g>
	<g>
	</g>
	<g>
	</g>
	<g>
	</g>
	<g>
	</g>
	<g>
	</g>
	<g>
	</g>
	<g>
	</g>
	<g>
	</g>
	<g>
	</g>
	<g>
	</g>
	<g>
	</g>
</g>
</svg>
